<svg width="311" height="112" viewBox="0 0 311 112" fill="none" xmlns="http://www.w3.org/2000/svg">
<path d="M34.1483 14H0V95.6667L34.1483 14Z" fill="#FA0C00"/>
<path d="M58.1748 14H92.2786V95.6667L58.1748 14Z" fill="#FA0C00"/>
<path d="M46.1617 44.0995L67.8965 95.6667H53.6365L47.1406 79.2489H31.2344L46.1617 44.0995Z" fill="#FA0C00"/>
<path d="M147.988 65.9348L152.015 77.4807C152.148 77.7699 152.348 77.9034 152.704 77.9034H160.446C160.869 77.9034 160.935 77.7031 160.869 77.2805L144.874 32.8543C144.807 32.4984 144.74 32.4316 144.384 32.4316H134.774C134.507 32.4316 134.351 32.6319 134.351 32.9211C134.217 35.2569 134.017 35.9688 133.728 36.6585L119.468 77.2137C119.401 77.7032 119.557 77.9034 119.958 77.9034H126.876C127.299 77.9034 127.499 77.7699 127.655 77.3472L131.459 65.9348H147.988ZM133.661 58.3932C135.752 52.0753 138.511 43.9775 139.623 39.3503H139.69C141.069 44.2 144.317 53.8105 145.786 58.3932H133.661Z" fill="#FA0C00"/>
<path d="M181.432 78.5929C185.592 78.5929 190.019 77.8366 194.513 75.9011C194.869 75.7676 194.935 75.6119 194.935 75.2782C194.802 74.0324 194.646 72.2305 194.646 70.8512V29.0279C194.646 28.7609 194.646 28.6274 194.313 28.6274H186.771C186.482 28.6274 186.348 28.7609 186.348 29.1169V43.2878C185.169 43.1544 184.346 43.0876 183.367 43.0876C171.198 43.0876 163.724 51.1186 163.724 61.1517C163.724 72.7866 171.399 78.5929 181.432 78.5929V78.5929ZM186.348 70.8512C185.102 71.2516 183.723 71.4073 182.322 71.4073C176.805 71.4073 172.289 68.2928 172.289 60.7291C172.289 54.0329 176.938 50.073 183.1 50.073C184.346 50.073 185.436 50.2065 186.348 50.5624V70.8512Z" fill="#FA0C00"/>
<path d="M218.994 43.0876C208.605 43.0876 202.176 51.0519 202.176 60.8848C202.176 69.6721 207.292 78.593 218.838 78.593C228.605 78.593 235.456 71.4074 235.456 60.6623C235.456 51.1853 229.65 43.0876 218.994 43.0876ZM218.571 50.073C224.444 50.073 226.936 55.123 226.936 60.8848C226.936 68.0037 223.265 71.5408 218.994 71.5408C213.722 71.5408 210.607 67.1138 210.607 60.7291C210.607 54.1664 213.922 50.073 218.571 50.073V50.073Z" fill="#FA0C00"/>
<path d="M243.254 28.6274C242.965 28.6274 242.765 28.7609 242.765 29.1169V76.4573C242.765 76.6575 242.965 77.0135 243.254 77.0802C246.569 78.1035 250.039 78.5929 253.621 78.5929C263.876 78.5929 273.843 72.2305 273.843 59.4165C273.843 50.1397 267.48 43.0876 257.514 43.0876C255.223 43.0876 253.087 43.4436 251.218 44.0665L251.129 29.1836C251.129 28.6942 250.996 28.6274 250.506 28.6274H243.254ZM265.322 60.2619C265.322 67.9369 260.072 71.5408 254.4 71.5408C253.22 71.5408 252.175 71.4741 251.218 71.1849V50.9851C252.308 50.5624 253.621 50.2065 256.046 50.2065C261.518 50.2065 265.322 53.6769 265.322 60.2619Z" fill="#FA0C00"/>
<path d="M301.987 62.7535C305.369 62.7535 308.149 62.6868 309.106 62.4643C309.462 62.3976 309.595 62.2641 309.662 61.9749C309.862 61.2185 309.951 59.639 309.951 57.7036C309.951 51.1186 305.992 43.0876 295.758 43.0876C285.302 43.0876 279.496 51.608 279.496 61.2185C279.496 69.7389 283.99 78.593 296.581 78.593C301.298 78.593 304.345 77.8366 306.97 76.5908C307.237 76.4573 307.371 76.2348 307.371 75.8344V70.0726C307.371 69.7389 307.171 69.6721 306.97 69.8056C304.345 70.9179 301.498 71.4741 298.383 71.4741C291.331 71.4741 288.128 67.581 287.927 62.7535H301.987ZM287.927 56.7915C288.484 53.41 290.619 49.7393 295.402 49.7393C300.675 49.7393 302.054 54.1664 302.054 56.1686C302.054 56.2353 302.054 56.5245 302.054 56.7247C301.765 56.7915 300.875 56.7915 298.25 56.7915H287.927Z" fill="#FA0C00"/>
</svg>
