<svg width="308" height="134" viewBox="0 0 308 134" fill="none" xmlns="http://www.w3.org/2000/svg">
<path fill-rule="evenodd" clip-rule="evenodd" d="M190.218 105.544C172.4 118.638 146.574 125.625 124.338 125.625C93.1598 125.625 65.0914 114.127 43.8566 95.005C42.1883 93.5012 43.6831 91.452 45.6852 92.623C68.6016 105.917 96.9369 113.914 126.206 113.914C145.946 113.914 167.662 109.842 187.628 101.392C190.645 100.115 193.167 103.362 190.218 105.544Z" fill="#FF9900"/>
<path fill-rule="evenodd" clip-rule="evenodd" d="M197.625 97.0943C195.356 94.1933 182.57 95.7236 176.831 96.4023C175.083 96.6152 174.816 95.0982 176.391 94.007C186.574 86.8611 203.284 88.9237 205.233 91.319C207.182 93.7276 204.726 110.428 195.156 118.399C193.688 119.623 192.287 118.971 192.941 117.348C195.09 111.998 199.908 100.009 197.625 97.0943Z" fill="#FF9900"/>
<path fill-rule="evenodd" clip-rule="evenodd" d="M177.232 43.5602V36.6139C177.232 35.5626 178.033 34.8573 178.994 34.8573H210.186C211.187 34.8573 211.988 35.5759 211.988 36.6139V42.5621C211.974 43.5602 211.133 44.8642 209.638 46.9268L193.475 69.9348C199.482 69.7884 205.821 70.68 211.267 73.7406C212.495 74.4326 212.828 75.4439 212.922 76.442V83.854C212.922 84.8653 211.801 86.0497 210.626 85.4375C201.03 80.4208 188.284 79.8752 177.673 85.4908C176.592 86.0763 175.457 84.9053 175.457 83.8939V76.8545C175.457 75.7234 175.471 73.7938 176.605 72.0772L195.331 45.3034H179.034C178.033 45.3034 177.232 44.5981 177.232 43.5602Z" fill="black"/>
<path fill-rule="evenodd" clip-rule="evenodd" d="M63.4508 86.9014H53.9613C53.0537 86.8349 52.3329 86.1562 52.2662 85.2912V36.7337C52.2662 35.7623 53.0804 34.9905 54.0947 34.9905H62.9437C63.8646 35.0304 64.5987 35.7357 64.6654 36.614V42.9614H64.8389C67.1479 36.8269 71.4856 33.9658 77.3315 33.9658C83.2708 33.9658 86.9812 36.8269 89.6506 42.9614C91.9463 36.8269 97.1649 33.9658 102.757 33.9658C106.735 33.9658 111.086 35.6026 113.742 39.2754C116.745 43.3606 116.131 49.2956 116.131 54.4987L116.117 85.1449C116.117 86.1163 115.303 86.9014 114.289 86.9014H104.813C103.865 86.8349 103.104 86.0764 103.104 85.1449V59.409C103.104 57.3597 103.291 52.2498 102.837 50.3069C102.13 47.0467 100.008 46.1285 97.2583 46.1285C94.9626 46.1285 92.5602 47.6588 91.5859 50.1073C90.6116 52.5558 90.705 56.6544 90.705 59.409V85.1449C90.705 86.1163 89.8909 86.9014 88.8765 86.9014H79.4003C78.4393 86.8349 77.6919 86.0764 77.6919 85.1449L77.6785 59.409C77.6785 53.993 78.5728 46.0221 71.8326 46.0221C65.0124 46.0221 65.2794 53.7934 65.2794 59.409V85.1449C65.2794 86.1163 64.4652 86.9014 63.4508 86.9014Z" fill="black"/>
<path fill-rule="evenodd" clip-rule="evenodd" d="M238.841 33.9658C252.922 33.9658 260.543 46.0221 260.543 61.3518C260.543 76.1626 252.121 87.9127 238.841 87.9127C225.014 87.9127 217.486 75.8565 217.486 60.8328C217.486 45.716 225.107 33.9658 238.841 33.9658ZM238.921 43.8796C231.927 43.8796 231.487 53.3809 231.487 59.3025C231.487 65.2375 231.393 77.9058 238.841 77.9058C246.195 77.9058 246.542 67.686 246.542 61.4583C246.542 57.3597 246.369 52.4627 245.127 48.577C244.06 45.197 241.937 43.8796 238.921 43.8796Z" fill="black"/>
<path fill-rule="evenodd" clip-rule="evenodd" d="M278.802 86.9014H269.352C268.404 86.8349 267.644 86.0764 267.644 85.1449L267.63 36.574C267.71 35.6825 268.498 34.9905 269.459 34.9905H278.254C279.082 35.0304 279.763 35.5893 279.949 36.3478V43.7732H280.123C282.779 37.1329 286.503 33.9658 293.056 33.9658C297.314 33.9658 301.464 35.4962 304.134 39.6879C306.616 43.5736 306.616 50.1073 306.616 54.8047V85.3711C306.51 86.2227 305.722 86.9014 304.788 86.9014H295.272C294.404 86.8349 293.683 86.1961 293.59 85.3711V58.9965C293.59 53.6869 294.204 45.9156 287.651 45.9156C285.342 45.9156 283.219 47.4592 282.165 49.8013C280.83 52.7688 280.657 55.7229 280.657 58.9965V85.1449C280.643 86.1163 279.816 86.9014 278.802 86.9014Z" fill="black"/>
<path fill-rule="evenodd" clip-rule="evenodd" d="M152.367 63.7071C152.367 67.3931 152.461 70.4671 150.592 73.7406C149.084 76.4021 146.682 78.0388 144.026 78.0388C140.382 78.0388 138.246 75.2709 138.246 71.1857C138.246 63.1216 145.494 61.6578 152.367 61.6578V63.7071ZM161.937 86.7683C161.31 87.3272 160.402 87.3671 159.695 86.9945C156.545 84.3863 155.971 83.1754 154.249 80.6869C149.044 85.9832 145.347 87.5667 138.607 87.5667C130.612 87.5667 124.406 82.6564 124.406 72.8224C124.406 65.1443 128.57 59.9146 134.523 57.3596C139.675 55.0974 146.869 54.6982 152.367 54.0728V52.8485C152.367 50.5996 152.541 47.9382 151.206 45.9954C150.058 44.2521 147.843 43.5335 145.881 43.5335C142.264 43.5335 139.047 45.3832 138.26 49.2157C138.1 50.0673 137.472 50.9057 136.605 50.9456L127.409 49.9609C126.635 49.7879 125.767 49.1624 125.994 47.9781C128.103 36.8534 138.193 33.5 147.216 33.5C151.834 33.5 157.866 34.7243 161.51 38.2107C166.128 42.5089 165.688 48.2443 165.688 54.4853V69.2295C165.688 73.6608 167.529 75.6036 169.264 77.9989C169.865 78.8505 169.999 79.8752 169.224 80.5139C167.289 82.1241 163.846 85.1182 161.95 86.7949L161.937 86.7683Z" fill="black"/>
<path fill-rule="evenodd" clip-rule="evenodd" d="M27.9615 63.7071C27.9615 67.3931 28.055 70.4671 26.1864 73.7406C24.6782 76.402 22.2892 78.0388 19.6198 78.0388C15.9761 78.0388 13.854 75.2709 13.854 71.1856C13.854 63.1216 21.1013 61.6578 27.9615 61.6578V63.7071ZM37.5312 86.7682C36.9039 87.3271 35.9963 87.367 35.2889 86.9945C32.1391 84.3863 31.5785 83.1753 29.8434 80.6869C24.6382 85.9831 20.9545 87.5667 14.201 87.5667C6.2196 87.5667 0 82.6563 0 72.8224C0 65.1442 4.17755 59.9145 10.1169 57.3596C15.2687 55.0974 22.4627 54.6982 27.9615 54.0727V52.8485C27.9615 50.5996 28.1351 47.9382 26.8137 45.9954C25.6525 44.2521 23.437 43.5335 21.4883 43.5335C17.8714 43.5335 14.6414 45.3832 13.854 49.2157C13.6938 50.0673 13.0665 50.9057 12.2123 50.9456L3.00303 49.9609C2.22891 49.7879 1.37472 49.1624 1.58827 47.9781C3.71041 36.8534 13.7872 33.5 22.8097 33.5C27.4277 33.5 33.4604 34.7243 37.1041 38.2107C41.7221 42.5089 41.2816 48.2442 41.2816 54.4853V69.2295C41.2816 73.6608 43.1235 75.6036 44.8586 77.9989C45.4725 78.8505 45.606 79.8752 44.8319 80.5139C42.8966 82.1241 39.4531 85.1182 37.5579 86.7948L37.5312 86.7682Z" fill="black"/>
</svg>
