<svg width="308" height="132" viewBox="0 0 308 132" fill="none" xmlns="http://www.w3.org/2000/svg">
<path fill-rule="evenodd" clip-rule="evenodd" d="M306.058 84.0492C293.249 105.767 272.962 99.465 266.87 94.531C264.277 96.2904 259.73 100.147 253.667 99.7014C240.755 98.7535 236.131 80.3018 236.131 80.3018C236.224 80.3756 232.285 81.6611 230.156 81.6381C230.129 87.0492 225.451 99.9752 212.828 99.8098C198.662 99.6251 195.782 78.5211 195.782 78.5211C195.782 78.5211 194.373 80.4785 189.013 82.4282C189.283 78.271 189.086 99.177 172.108 99.4844C158.685 99.7276 155.062 78.1956 155.062 78.1956C155.062 78.1956 152.734 80.6144 148.221 81.4533C148.508 77.2284 148.042 99.5553 131.062 99.4844C119.587 99.4368 115.666 86.2207 115.971 84.3864C116.36 82.0487 112.093 99.8131 100.947 99.5364C96.3471 99.4013 92.9179 96.0709 90.7661 91.6311C87.8855 94.9271 83.7034 99.5364 79.0118 99.5364C70.5902 99.5364 66.8775 92.4926 67.5063 72.3743C67.56 69.9882 67.3877 69.0496 65.0157 68.6927C63.592 68.4551 62.1339 68.0054 60.5912 67.7682C60.0967 69.4183 55.9028 98.9995 41.4816 99.561C36.6436 99.7493 33.9982 95.5583 31.8257 92.4478C28.4954 96.8534 24.0992 99.7014 17.8365 99.7014C7.22794 99.7014 0 91.1253 0 80.5462C0 69.9668 7.22794 61.3916 17.8365 61.3916C19.7122 61.3916 20.2387 61.6605 21.9523 62.1604C18.4283 30.0753 26.7506 25.0608 34.0308 25.0608C41.0202 25.0608 52.9609 41.2831 36.1593 82.4314C39.8896 94.7049 47.9313 94.0107 51.7957 68.7451C52.5822 63.6093 50.4792 56.6789 53.7502 55.7117C59.7296 53.9439 60.3641 59.2477 63.1677 60.1314C66.1322 61.0654 67.8625 60.9742 70.7084 61.5685C75.5714 62.5182 77.4691 65.1306 76.8766 70.9489C76.1651 78.311 74.9204 89.0263 78.7153 90.3323C81.452 91.281 86.4485 85.6057 87.3253 82.5004C88.2018 79.3951 88.3849 78.3323 88.4627 76.0547C88.5813 71.1869 88.7301 67.6186 89.5602 63.9372C89.9155 62.5126 90.3205 61.5693 91.9322 61.5048C93.2583 61.471 95.6836 61.0717 96.7512 61.9026C98.1742 62.9718 97.9963 64.0566 97.8329 66.912C96.1781 107.622 108.915 87.2993 112.713 71.0268C111.361 52.6264 112.289 25.3978 123.82 24.9411C129.816 24.7036 132.468 29.5077 132.759 33.0935C133.584 43.2211 128.964 59.9973 122.888 71.2793C119.415 94.2995 138.071 98.8511 141.055 80.4765C136.173 78.1557 130.898 68.762 135.191 64.1843C137.6 61.6151 147.626 65.3059 147.79 73.3556C152.708 72.0403 153.365 69.2634 153.433 69.7236C152.081 51.3232 153.335 25.398 164.867 24.9413C170.863 24.7038 173.513 29.5079 173.805 33.0937C174.63 43.2213 170.009 59.9975 163.934 71.2797C160.461 94.2995 179.118 98.8515 182.1 80.4769C178.486 79.7795 170.858 69.7881 175.259 64.1845C177.611 61.19 187.601 67.4173 188.72 73.6222C193.444 72.2852 194.086 69.5965 194.154 70.0491C192.801 51.6493 194.055 25.7241 205.587 25.2674C211.583 25.0299 214.233 29.834 214.525 33.4198C215.35 43.5474 210.73 60.324 204.653 71.606C201.181 94.6262 219.837 99.177 222.821 80.8024C217.854 79.9755 210.797 69.4259 216.477 64.0291C218.747 61.8727 227.419 67.4702 229.449 73.8561C232.269 73.7477 234.025 72.7748 234.401 72.6768C229.898 51.0759 233.251 25.158 245.655 24.9416C252.36 24.8248 258.914 28.5663 256.037 49.1166C253.291 68.7241 243.419 76.9525 243.442 77.0784C244.017 79.4274 249.082 99.0859 261.838 88.7133C261.178 87.2182 260.517 85.6908 260.147 83.8403C258.033 73.0612 262.186 60.8861 273.473 58.9184C279.94 57.791 286.032 60.9396 286.995 68.0377C288.58 79.6525 278.092 88.064 274.104 89.8886C272.317 88.8739 290.296 100.404 300.966 77.297C301.584 75.9777 302.33 76.0894 303.297 76.7694C303.979 77.2498 307.866 80.9322 306.058 84.0492ZM25.5533 77.6923C25.0104 76.0692 23.8963 72.4929 23.5023 70.9433C21.3325 69.0565 19.7838 68.75 16.9987 68.75C10.8093 68.75 7.16639 74.4724 7.16639 80.643C7.16639 86.8132 11.1351 92.5365 17.3245 92.5365C22.6883 92.5365 26.7706 88.8896 28.0161 83.7269C27.1444 81.7143 26.2796 79.8646 25.5533 77.6923ZM33.8792 33.554C29.5302 33.554 28.0549 43.9285 28.3412 52.779C28.5944 60.6039 30.781 67.4928 31.9152 70.5795C32.2032 70.9663 32.1497 70.7146 32.4068 71.1248C39.958 54.5798 36.826 33.554 33.8792 33.554ZM124.441 33.8799C118.82 33.2352 118.856 56.6503 119.554 61.9026C122.473 57.2325 127.545 35.1373 124.441 33.8799ZM165.486 33.8799C159.866 33.2352 159.902 56.6503 160.6 61.9026C163.519 57.2325 168.591 35.1373 165.486 33.8799ZM206.207 34.2057C200.586 33.561 200.622 56.9762 201.32 62.2289C204.239 57.5583 209.311 35.463 206.207 34.2057ZM246.275 32.5092C237.518 34.2678 239.557 63.467 240.887 68.5882C251.203 54.4197 251.415 31.977 246.275 32.5092ZM279.097 68.9984C278.651 67.1366 276.425 66.1416 274.888 66.3868C270.491 66.9874 266.226 72.4638 267.877 80.8015C268.245 82.6585 269.164 84.3678 269.149 84.311C278.99 77.7088 279.827 72.5062 279.097 68.9984ZM93.656 55.0599C92.3992 55.0602 91.1707 54.6877 90.1256 53.9896C89.0806 53.2916 88.2659 52.2993 87.7847 51.1382C87.3035 49.9772 87.1777 48.6995 87.4229 47.4669C87.6677 46.2342 88.2731 45.1019 89.1617 44.2132C90.0502 43.3244 91.1824 42.7192 92.415 42.4739C93.6476 42.2287 94.9253 42.3545 96.0865 42.8355C97.2477 43.3164 98.2399 44.1309 98.9381 45.1759C99.6363 46.2209 100.009 47.4495 100.009 48.7063C100.009 49.5406 99.8448 50.3668 99.5253 51.1376C99.2063 51.9084 98.7384 52.6088 98.1484 53.1988C97.5583 53.7888 96.8581 54.2568 96.0873 54.5762C95.3166 54.8955 94.4905 55.0599 93.656 55.0599Z" fill="#0D0C22"/>
</svg>
