<svg width="309" height="90" viewBox="0 0 309 90" fill="none" xmlns="http://www.w3.org/2000/svg">
<path d="M308.732 40.9385V35.5353H301.989V27.1355L301.763 27.205L295.43 29.1333L295.305 29.171V35.5356H285.309V31.99C285.309 30.339 285.68 29.0756 286.411 28.233C287.137 27.4006 288.176 26.9773 289.5 26.9773C290.452 26.9773 291.438 27.2005 292.43 27.6407L292.679 27.7513V22.061L292.562 22.0182C291.636 21.6871 290.378 21.5204 288.817 21.5204C286.85 21.5204 285.064 21.9463 283.505 22.7903C281.946 23.6356 280.719 24.8422 279.86 26.3764C279.004 27.9088 278.569 29.6786 278.569 31.6372V35.5353H273.875V40.9385H278.569V63.701H285.309V40.9385H295.305V55.4037C295.305 61.3612 298.128 64.3801 303.697 64.3801C304.613 64.3801 305.576 64.2734 306.559 64.0645C307.56 63.8499 308.242 63.6357 308.643 63.4068L308.732 63.3545V57.9014L308.458 58.0818C308.092 58.3243 307.637 58.5226 307.103 58.67C306.566 58.8201 306.118 58.8953 305.771 58.8953C304.467 58.8953 303.502 58.5454 302.903 57.855C302.297 57.1584 301.99 55.9402 301.99 54.236V40.9385H308.732ZM258.824 58.8961C256.377 58.8961 254.449 58.0889 253.089 56.4989C251.722 54.9008 251.029 52.6225 251.029 49.7277C251.029 46.7411 251.722 44.4036 253.09 42.7773C254.45 41.1617 256.36 40.3417 258.769 40.3417C261.106 40.3417 262.966 41.1248 264.299 42.6706C265.638 44.2244 266.317 46.5432 266.317 49.5645C266.317 52.6231 265.678 54.9725 264.418 56.5441C263.166 58.1038 261.284 58.8961 258.824 58.8961ZM259.123 34.8568C254.456 34.8568 250.749 36.2177 248.106 38.9018C245.465 41.5861 244.126 45.3009 244.126 49.9438C244.126 54.3537 245.433 57.9008 248.011 60.485C250.59 63.0701 254.099 64.3796 258.441 64.3796C262.965 64.3796 266.598 62.9996 269.24 60.2784C271.881 57.5602 273.22 53.8805 273.22 49.3461C273.22 44.8672 271.964 41.2937 269.486 38.7267C267.007 36.1586 263.52 34.8568 259.123 34.8568ZM233.259 34.8568C230.085 34.8568 227.458 35.6649 225.452 37.2582C223.434 38.861 222.41 40.9632 222.41 43.5069C222.41 44.8292 222.631 46.0037 223.066 47C223.504 47.9995 224.181 48.8795 225.08 49.618C225.973 50.3506 227.351 51.118 229.177 51.8988C230.712 52.5274 231.857 53.0591 232.584 53.4781C233.295 53.8889 233.799 54.3017 234.084 54.7038C234.361 55.0973 234.501 55.6358 234.501 56.3004C234.501 58.1927 233.077 59.1134 230.147 59.1134C229.06 59.1134 227.821 58.8875 226.463 58.4423C225.114 58.0038 223.842 57.3617 222.69 56.5384L222.41 56.3387V62.7961L222.512 62.8436C223.466 63.2817 224.668 63.6511 226.086 63.9418C227.5 64.2327 228.785 64.3807 229.901 64.3807C233.346 64.3807 236.121 63.5688 238.145 61.966C240.182 60.3521 241.214 58.2004 241.214 55.5686C241.214 53.6701 240.659 52.042 239.563 50.729C238.475 49.4266 236.587 48.231 233.953 47.1741C231.855 46.336 230.51 45.6403 229.956 45.1062C229.421 44.5902 229.15 43.8606 229.15 42.9366C229.15 42.1175 229.485 41.4613 230.173 40.9299C230.866 40.3958 231.831 40.1242 233.041 40.1242C234.164 40.1242 235.313 40.3007 236.455 40.6466C237.597 40.9926 238.6 41.4559 239.437 42.0227L239.713 42.2099V36.0846L239.607 36.0394C238.834 35.7098 237.816 35.4277 236.579 35.1989C235.348 34.9715 234.231 34.8568 233.259 34.8568ZM204.84 58.8961C202.395 58.8961 200.465 58.0889 199.106 56.4989C197.739 54.9008 197.047 52.6231 197.047 49.7277C197.047 46.7411 197.739 44.4036 199.108 42.7773C200.467 41.1617 202.377 40.3417 204.786 40.3417C207.122 40.3417 208.983 41.1248 210.315 42.6706C211.655 44.2244 212.334 46.5432 212.334 49.5645C212.334 52.6231 211.695 54.9725 210.435 56.5441C209.183 58.1038 207.302 58.8961 204.84 58.8961ZM205.141 34.8568C200.472 34.8568 196.765 36.2177 194.124 38.9018C191.482 41.5861 190.142 45.3009 190.142 49.9438C190.142 54.3555 191.45 57.9008 194.029 60.485C196.608 63.0701 200.116 64.3796 204.458 64.3796C208.981 64.3796 212.615 62.9996 215.257 60.2784C217.898 57.5602 219.237 53.8805 219.237 49.3461C219.237 44.8672 217.981 41.2937 215.502 38.7267C213.023 36.1586 209.536 34.8568 205.141 34.8568ZM179.912 40.413V35.5353H173.254V63.7004H179.912V49.2929C179.912 46.843 180.47 44.8304 181.571 43.3102C182.659 41.8081 184.108 41.047 185.877 41.047C186.477 41.047 187.15 41.1453 187.879 41.34C188.6 41.5335 189.123 41.7436 189.431 41.9647L189.711 42.1665V35.4872L189.603 35.4411C188.983 35.179 188.106 35.0467 186.996 35.0467C185.323 35.0467 183.826 35.5817 182.544 36.635C181.418 37.5608 180.605 38.8301 179.982 40.413H179.912ZM161.332 34.8568C158.277 34.8568 155.553 35.5086 153.236 36.7934C150.914 38.0812 149.118 39.9197 147.896 42.2575C146.68 44.5896 146.062 47.3138 146.062 50.3518C146.062 53.013 146.661 55.4551 147.844 57.6075C149.029 59.7634 150.705 61.45 152.826 62.6198C154.945 63.7881 157.394 64.3804 160.105 64.3804C163.269 64.3804 165.97 63.751 168.136 62.5095L168.223 62.4596V56.3898L167.943 56.5931C166.962 57.3043 165.866 57.872 164.686 58.2809C163.51 58.6896 162.437 58.8961 161.496 58.8961C158.884 58.8961 156.787 58.0827 155.264 56.479C153.739 54.8732 152.965 52.6183 152.965 49.7809C152.965 46.9257 153.772 44.6128 155.362 42.9063C156.947 41.2048 159.048 40.3417 161.606 40.3417C163.794 40.3417 165.927 41.0791 167.944 42.5354L168.223 42.7372V36.3416L168.133 36.2911C167.374 35.8682 166.338 35.519 165.053 35.2542C163.773 34.99 162.521 34.8568 161.332 34.8568ZM141.477 35.5356H134.819V63.7004H141.477V35.5356ZM138.216 23.5372C137.12 23.5372 136.165 23.9084 135.379 24.644C134.591 25.3817 134.191 26.3104 134.191 27.4065C134.191 28.4854 134.586 29.3972 135.367 30.1152C136.143 30.8312 137.102 31.1941 138.216 31.1941C139.331 31.1941 140.293 30.8312 141.078 30.1164C141.868 29.3972 142.269 28.4857 142.269 27.4065C142.269 26.3488 141.879 25.4295 141.111 24.6737C140.343 23.9194 139.369 23.5372 138.216 23.5372ZM121.605 33.4576V63.7004H128.399V24.3994H118.996L107.043 53.5911L95.4436 24.3994H85.657V63.7001H92.0419V33.4546H92.2611L104.51 63.7004H109.328L121.386 33.4576H121.605Z" fill="#706D6E"/>
<path d="M31.3192 42.4336H0V11.2665H31.3192V42.4336Z" fill="#F1511B"/>
<path d="M65.8994 42.4336H34.5808V11.2665H65.8994V42.4336Z" fill="#80CC28"/>
<path d="M31.3183 76.858H0V45.6912H31.3183V76.858Z" fill="#00ADEF"/>
<path d="M65.8994 76.858H34.5808V45.6912H65.8994V76.858Z" fill="#FBBC09"/>
</svg>
