<svg width="309" height="134" viewBox="0 0 309 134" fill="none" xmlns="http://www.w3.org/2000/svg">
<g clip-path="url(#clip0_528_981)">
<path d="M42.4907 106.268C37.8421 107.087 33.1118 107.332 28.2186 107.986L13.2934 64.1485V109.867C8.64492 110.358 4.40409 111.012 0 111.667V27.9166H12.3969L29.3602 75.4356V27.9166H42.4907V106.268ZM68.181 58.5868C73.2378 58.5868 80.9856 58.3414 85.6341 58.3414V71.427C79.8433 71.427 73.0746 71.427 68.181 71.6725V91.1381C75.8476 90.6476 83.5138 89.9927 91.2613 89.7472V102.342L55.1317 105.205V27.9166H91.2613V41.0026H68.181V58.5868ZM139.787 41.0029H126.249V101.198C121.845 101.198 117.441 101.198 113.201 101.361V41.0029H99.6623V27.9166H139.788L139.787 41.0029ZM160.992 57.6874H178.853V70.773H160.992V100.462H148.186V27.9166H184.643V41.0026H160.992V57.6874ZM205.848 89.0116C213.269 89.1747 220.772 89.7482 228.031 90.1564V103.079C216.369 102.342 204.706 101.607 192.799 101.361V27.9166H205.848V89.0116ZM239.041 103.979C243.2 104.224 247.604 104.47 251.845 104.96V27.9166H239.041V103.979ZM309.016 27.9166L292.46 67.7471L309.016 111.667C304.123 111.012 299.229 110.113 294.336 109.295L284.957 85.0862L275.416 107.332C270.685 106.514 266.118 106.268 261.388 105.614L278.189 67.2559L263.019 27.9166H277.046L285.609 49.9174L294.744 27.9166H309.016V27.9166Z" fill="#D81F26"/>
</g>
<defs>
<clipPath id="clip0_528_981">
<rect width="309" height="134" fill="white"/>
</clipPath>
</defs>
</svg>
