<svg width="309" height="106" viewBox="0 0 309 106" fill="none" xmlns="http://www.w3.org/2000/svg">
<g clip-path="url(#clip0_528_977)">
<path d="M46.5105 6.79968C20.9122 6.79968 0.159668 27.5628 0.159668 53.175C0.159668 78.7882 20.9122 99.5497 46.5105 99.5497C72.1116 99.5497 92.8619 78.7882 92.8619 53.175C92.8619 27.5645 72.1116 6.8019 46.51 6.8019L46.5105 6.79968ZM67.7667 73.6861C66.9365 75.0485 65.1542 75.4804 63.7927 74.6442C52.91 67.9932 39.21 66.4869 23.0758 70.1751C21.521 70.5296 19.9713 69.5549 19.617 67.9987C19.2611 66.4426 20.2314 64.892 21.79 64.5376C39.4463 60.5016 54.5915 62.2394 66.8092 69.7099C68.1708 70.5462 68.6025 72.3238 67.7667 73.6861ZM73.44 61.0587C72.3939 62.7599 70.1689 63.2971 68.4696 62.2504C56.0106 54.5882 37.0187 52.3692 22.2821 56.8449C20.3709 57.4225 18.3523 56.3448 17.7722 54.4359C17.1966 52.5237 18.2743 50.5079 20.1821 49.9264C37.0154 44.8161 57.9423 47.2915 72.25 56.0884C73.9492 57.1351 74.4861 59.3613 73.44 61.0592V61.0587ZM73.927 47.9095C58.9884 39.0318 34.3415 38.2155 20.0786 42.5467C17.7883 43.2417 15.3662 41.948 14.6722 39.6565C13.9781 37.3638 15.2699 34.9421 17.5619 34.2454C33.9347 29.2724 61.1525 30.2332 78.3516 40.4489C80.4162 41.6722 81.0914 44.3343 79.8682 46.3927C78.6505 48.4539 75.9827 49.1334 73.9293 47.9095H73.927ZM126.265 49.6108C118.262 47.7013 116.839 46.3612 116.839 43.5451C116.839 40.8848 119.341 39.0944 123.066 39.0944C126.675 39.0944 130.25 40.4539 134.003 43.2527C134.113 43.3375 134.257 43.3713 134.396 43.3491C134.54 43.3281 134.661 43.2511 134.744 43.1353L138.652 37.6241C138.813 37.397 138.768 37.0841 138.552 36.9108C134.086 33.3261 129.06 31.5833 123.182 31.5833C114.542 31.5833 108.504 36.7718 108.504 44.1953C108.504 52.156 113.712 54.9748 122.712 57.1506C130.366 58.9155 131.661 60.3941 131.661 63.0368C131.661 65.9663 129.049 67.7883 124.843 67.7883C120.171 67.7883 116.358 66.21 112.096 62.5218C111.991 62.4276 111.847 62.3889 111.714 62.3944C111.57 62.4055 111.443 62.4719 111.354 62.5772L106.97 67.7938C106.788 68.0154 106.81 68.3366 107.02 68.5248C111.979 72.9551 118.079 75.2921 124.665 75.2921C133.975 75.2921 139.992 70.2028 139.992 62.3224C140.008 55.6731 136.029 51.9904 126.282 49.618L126.265 49.6108ZM161.057 41.7138C157.022 41.7138 153.713 43.3042 150.978 46.5633V42.895C150.978 42.6054 150.746 42.3695 150.458 42.3695H143.29C143.003 42.3695 142.77 42.6054 142.77 42.895V83.6543C142.77 83.9423 143.003 84.1804 143.29 84.1804H150.458C150.746 84.1804 150.978 83.9423 150.978 83.6543V70.7898C153.713 73.8523 157.022 75.353 161.057 75.353C168.557 75.353 176.151 69.577 176.151 58.5351C176.162 47.4909 168.568 41.7132 161.063 41.7132L161.057 41.7138ZM167.815 58.5351C167.815 64.1555 164.356 68.0818 159.397 68.0818C154.498 68.0818 150.801 63.9782 150.801 58.5351C150.801 53.0913 154.498 48.9889 159.397 48.9889C164.273 48.9883 167.815 53.0022 167.815 58.5345V58.5351ZM195.606 41.7138C185.948 41.7138 178.382 49.1545 178.382 58.6552C178.382 68.0541 185.898 75.414 195.49 75.414C205.181 75.414 212.77 67.9987 212.77 58.5351C212.77 49.1035 205.231 41.7149 195.606 41.7149V41.7138ZM195.606 68.1372C190.47 68.1372 186.595 64.0059 186.595 58.5323C186.595 53.0337 190.337 49.0437 195.49 49.0437C200.659 49.0437 204.556 53.1733 204.556 58.6525C204.556 64.1499 200.792 68.1372 195.606 68.1372ZM233.393 42.3695H225.506V34.303C225.506 34.0139 225.273 33.778 224.985 33.778H217.818C217.53 33.778 217.292 34.0139 217.292 34.303V42.3695H213.849C213.561 42.3695 213.329 42.6054 213.329 42.895V49.057C213.329 49.3461 213.561 49.5825 213.849 49.5825H217.292V65.5289C217.292 71.9694 220.497 75.2367 226.823 75.2367C229.391 75.2367 231.522 74.7051 233.531 73.5643C233.697 73.4757 233.797 73.2985 233.797 73.1102V67.2401C233.797 67.0628 233.703 66.8912 233.548 66.797C233.393 66.6973 233.199 66.6918 233.039 66.7749C231.66 67.4671 230.326 67.7883 228.832 67.7883C226.535 67.7883 225.506 66.7416 225.506 64.4047V49.5853H233.393C233.681 49.5853 233.913 49.3494 233.913 49.0598V42.8983C233.924 42.6087 233.692 42.3728 233.398 42.3728L233.393 42.3695ZM260.868 42.401V41.4103C260.868 38.4957 261.986 37.196 264.488 37.196C265.982 37.196 267.183 37.4928 268.528 37.9414C268.694 37.9934 268.866 37.9674 268.999 37.8683C269.137 37.7691 269.215 37.6102 269.215 37.4419V31.4C269.215 31.1691 269.071 30.9648 268.844 30.8966C267.427 30.4741 265.611 30.0405 262.888 30.0405C256.274 30.0405 252.77 33.7697 252.77 40.8211V42.3384H249.328C249.04 42.3384 248.802 42.5744 248.802 42.8634V49.057C248.802 49.3461 249.04 49.5825 249.328 49.5825H252.77V74.1735C252.77 74.467 253.008 74.6996 253.296 74.6996H260.458C260.752 74.6996 260.984 74.467 260.984 74.1735V49.5842H267.676L277.927 74.1735C276.764 76.7541 275.618 77.2691 274.058 77.2691C272.796 77.2691 271.462 76.8926 270.106 76.145C269.978 76.0785 269.823 76.0674 269.691 76.1062C269.552 76.156 269.436 76.2557 269.381 76.3886L266.951 81.7216C266.835 81.9763 266.934 82.2699 267.178 82.4028C269.713 83.7762 271.999 84.3632 274.827 84.3632C280.118 84.3632 283.046 81.8933 285.62 75.2589L298.051 43.1187C298.118 42.957 298.096 42.7743 297.996 42.6308C297.902 42.4885 297.741 42.4027 297.57 42.4027H290.109C289.882 42.4027 289.683 42.545 289.611 42.7549L281.967 64.5929L273.598 42.7405C273.521 42.5373 273.327 42.4027 273.111 42.4027H260.868V42.401ZM244.939 42.3695H237.771C237.483 42.3695 237.245 42.6054 237.245 42.895V74.1735C237.245 74.467 237.483 74.6996 237.771 74.6996H244.939C245.226 74.6996 245.464 74.467 245.464 74.1735V42.8972C245.464 42.6076 245.232 42.3717 244.939 42.3717V42.3695ZM241.396 28.1266C238.557 28.1266 236.254 30.4259 236.254 33.2663C236.254 36.1083 238.557 38.4104 241.396 38.4104C244.236 38.4104 246.533 36.1083 246.533 33.2663C246.533 30.4265 244.23 28.1266 241.396 28.1266ZM304.173 52.4268C301.339 52.4268 299.131 50.148 299.131 47.3807C299.131 44.6134 301.367 42.3085 304.201 42.3085C307.035 42.3085 309.243 44.5868 309.243 47.3519C309.243 50.1192 307.007 52.4268 304.173 52.4268ZM304.201 42.8103C301.616 42.8103 299.662 44.8648 299.662 47.3807C299.662 49.8954 301.605 51.9223 304.173 51.9223C306.758 51.9223 308.712 49.8694 308.712 47.3519C308.712 44.8371 306.769 42.8103 304.201 42.8103ZM305.319 47.8708L306.747 49.8688H305.54L304.256 48.0358H303.155V49.8688H302.147V44.5724H304.505C305.739 44.5724 306.547 45.2021 306.547 46.262C306.553 47.1304 306.049 47.6609 305.324 47.8708H305.319ZM304.466 45.4812H303.155V47.1564H304.466C305.119 47.1564 305.512 46.8358 305.512 46.318C305.512 45.773 305.119 45.4812 304.466 45.4812Z" fill="#1ED760"/>
</g>
<defs>
<clipPath id="clip0_528_977">
<rect width="309" height="106" fill="white"/>
</clipPath>
</defs>
</svg>
