<svg width="308" height="144" viewBox="0 0 308 144" fill="none" xmlns="http://www.w3.org/2000/svg">
<path fill-rule="evenodd" clip-rule="evenodd" d="M299.758 56.1708L287.489 43.863H264.698V28.0329H245.411V100.139H264.698V63.2046H280.472V100.139H299.758V56.1708ZM238.404 43.863H208.603L196.331 56.1708V87.8256L208.603 100.139H238.404V80.7954H215.612V63.2046H238.404V43.863ZM189.32 43.863H173.545V28.0329H154.259V87.8256L166.53 100.139H189.32V80.7954H173.545V63.2046H189.32V43.863ZM147.247 28.0329H127.966V36.8292H147.247V28.0329ZM147.247 43.863H127.966V100.138H147.247V43.863ZM120.954 43.863H101.672V80.7954H94.6616V43.863H75.3781V80.7954H68.3688V43.863H49.0826V100.139H108.685L120.954 87.8256V43.863ZM42.0707 43.863H26.2954V28.0329H7.01282V87.8256L19.2835 100.139H42.0707V80.7954H26.2954V63.2046H42.0707V43.863ZM306.765 52.653V105.412L280.472 123H262.943V114.204L250.673 123H234.898V114.204L226.136 123H198.087L189.32 114.204L187.564 123H163.027L152.992 114.204L152.43 123H124.617L123.634 114.204L116.105 123H73.623L64.857 119.482V123H42.0707L15.7753 107.168L0 91.3479V21H33.3083L49.0826 36.8292H120.954V21H180.554V36.8292H196.331V45.6201L205.099 36.8292H222.625L238.404 21H271.71V36.8292H290.993L306.765 52.653Z" fill="#6441A5"/>
</svg>
