<svg width="52" height="52" viewBox="0 0 52 52" fill="none" xmlns="http://www.w3.org/2000/svg">
<mask id="mask0_559_32" style="mask-type:alpha" maskUnits="userSpaceOnUse" x="0" y="0" width="52" height="52">
<rect width="52" height="52" fill="#D9D9D9"/>
</mask>
<g mask="url(#mask0_559_32)">
<path d="M17.3333 45.5V41.1667H21.6666V36.8333H8.66659C7.47492 36.8333 6.45478 36.409 5.60617 35.5604C4.75756 34.7118 4.33325 33.6917 4.33325 32.5V10.8333C4.33325 9.64167 4.75756 8.62153 5.60617 7.77292C6.45478 6.92431 7.47492 6.5 8.66659 6.5H43.3333C44.5249 6.5 45.5451 6.92431 46.3937 7.77292C47.2423 8.62153 47.6666 9.64167 47.6666 10.8333V32.5C47.6666 33.6917 47.2423 34.7118 46.3937 35.5604C45.5451 36.409 44.5249 36.8333 43.3333 36.8333H30.3333V41.1667H34.6666V45.5H17.3333ZM8.66659 32.5H43.3333V10.8333H8.66659V32.5Z" fill="#1C1B1F"/>
</g>
</svg>
