<svg width="40" height="41" viewBox="0 0 40 41" fill="none" xmlns="http://www.w3.org/2000/svg">
<g clip-path="url(#clip0_406_2680)">
<path d="M40 20.2578C40 9.21221 31.0456 0.257812 20 0.257812C8.9544 0.257812 0 9.21221 0 20.2578C0 29.637 6.4576 37.5074 15.1688 39.669V26.3698H11.0448V20.2578H15.1688V17.6242C15.1688 10.817 18.2496 7.66181 24.9328 7.66181C26.2 7.66181 28.3864 7.91061 29.2808 8.15861V13.6986C28.8088 13.649 27.9888 13.6242 26.9704 13.6242C23.6912 13.6242 22.424 14.8666 22.424 18.0962V20.2578H28.9568L27.8344 26.3698H22.424V40.1114C32.3272 38.9154 40.0008 30.4834 40.0008 20.2578H40Z" fill="#0866FF"/>
<path d="M27.8336 26.3696L28.956 20.2576H22.4232V18.096C22.4232 14.8664 23.6904 13.624 26.9696 13.624C27.988 13.624 28.808 13.6488 29.28 13.6984V8.15842C28.3856 7.90962 26.1992 7.66162 24.932 7.66162C18.2488 7.66162 15.168 10.8168 15.168 17.624V20.2576H11.044V26.3696H15.168V39.6688C16.7152 40.0528 18.3336 40.2576 19.9992 40.2576C20.8192 40.2576 21.628 40.2072 22.4224 40.1112V26.3696H27.8328H27.8336Z" fill="white"/>
</g>
<defs>
<clipPath id="clip0_406_2680">
<rect width="40" height="40" fill="white" transform="translate(0 0.257812)"/>
</clipPath>
</defs>
</svg>
