<svg width="40" height="41" viewBox="0 0 40 41" fill="none" xmlns="http://www.w3.org/2000/svg">
<g clip-path="url(#clip0_406_2677)">
<path fill-rule="evenodd" clip-rule="evenodd" d="M20.0165 0.257812C8.94791 0.257812 0 9.27169 0 20.4231C0 29.337 5.73324 36.8824 13.6868 39.553C14.6812 39.7538 15.0454 39.1191 15.0454 38.5852C15.0454 38.1177 15.0126 36.5153 15.0126 34.8457C9.4445 36.0478 8.28498 32.4419 8.28498 32.4419C7.39015 30.1048 6.06429 29.5042 6.06429 29.5042C4.24185 28.2689 6.19704 28.2689 6.19704 28.2689C8.21861 28.4024 9.27938 30.3388 9.27938 30.3388C11.0686 33.41 13.9518 32.5422 15.1118 32.008C15.2773 30.7059 15.8079 29.8045 16.3713 29.3038C11.9303 28.8363 7.25781 27.1003 7.25781 19.3545C7.25781 17.1511 8.05267 15.3483 9.31216 13.9462C9.11344 13.4455 8.41732 11.3752 9.51128 8.60426C9.51128 8.60426 11.2014 8.06998 15.0122 10.6742C16.6438 10.2328 18.3263 10.0082 20.0165 10.0063C21.7067 10.0063 23.4295 10.2403 25.0205 10.6742C28.8317 8.06998 30.5218 8.60426 30.5218 8.60426C31.6158 11.3752 30.9192 13.4455 30.7205 13.9462C32.0132 15.3483 32.7753 17.1511 32.7753 19.3545C32.7753 27.1003 28.1028 28.8027 23.6287 29.3038C24.358 29.9381 24.9873 31.1398 24.9873 33.0429C24.9873 35.7471 24.9545 37.9174 24.9545 38.5848C24.9545 39.1191 25.3192 39.7538 26.3132 39.5534C34.2667 36.882 39.9999 29.337 39.9999 20.4231C40.0327 9.27169 31.052 0.257812 20.0165 0.257812Z" fill="#24292F"/>
</g>
<defs>
<clipPath id="clip0_406_2677">
<rect width="40" height="40" fill="white" transform="translate(0 0.257812)"/>
</clipPath>
</defs>
</svg>
