<svg width="52" height="52" viewBox="0 0 52 52" fill="none" xmlns="http://www.w3.org/2000/svg">
<mask id="mask0_559_1441" style="mask-type:alpha" maskUnits="userSpaceOnUse" x="0" y="0" width="52" height="52">
<rect width="52" height="52" fill="#D9D9D9"/>
</mask>
<g mask="url(#mask0_559_1441)">
<path d="M26 49.8333V45.4999H41.1667V43.3333H32.5V25.9999H41.1667V23.8333C41.1667 19.6444 39.6861 16.0694 36.725 13.1083C33.7639 10.1471 30.1889 8.66659 26 8.66659C21.8111 8.66659 18.2361 10.1471 15.275 13.1083C12.3139 16.0694 10.8333 19.6444 10.8333 23.8333V25.9999H19.5V43.3333H10.8333C9.64167 43.3333 8.62153 42.9089 7.77292 42.0603C6.92431 41.2117 6.5 40.1916 6.5 38.9999V23.8333C6.5 21.161 7.01458 18.6423 8.04375 16.277C9.07292 13.9117 10.4722 11.8444 12.2417 10.0749C14.0111 8.30547 16.0785 6.90617 18.4438 5.877C20.809 4.84784 23.3278 4.33325 26 4.33325C28.6722 4.33325 31.191 4.84784 33.5563 5.877C35.9215 6.90617 37.9889 8.30547 39.7583 10.0749C41.5278 11.8444 42.9271 13.9117 43.9563 16.277C44.9854 18.6423 45.5 21.161 45.5 23.8333V45.4999C45.5 46.6916 45.0757 47.7117 44.2271 48.5603C43.3785 49.4089 42.3583 49.8333 41.1667 49.8333H26ZM10.8333 38.9999H15.1667V30.3333H10.8333V38.9999ZM36.8333 38.9999H41.1667V30.3333H36.8333V38.9999Z" fill="#1C1B1F"/>
</g>
</svg>
