<svg width="40" height="41" viewBox="0 0 40 41" fill="none" xmlns="http://www.w3.org/2000/svg">
<rect y="0.257812" width="40" height="40" rx="20" fill="url(#paint0_linear_406_2678)"/>
<path d="M25.7211 8.81787H13.344C9.92462 8.81787 7.14285 11.6005 7.14285 15.0209V26.3475C7.14285 29.7679 9.92462 32.5505 13.344 32.5505H25.7211C29.1405 32.5505 31.9223 29.7679 31.9223 26.3475V15.0209C31.9223 11.6005 29.1405 8.81787 25.7211 8.81787ZM9.33043 15.0209C9.33043 12.8074 11.1312 11.0061 13.344 11.0061H25.7211C27.9339 11.0061 29.7347 12.8074 29.7347 15.0209V26.3475C29.7347 28.5609 27.9339 30.3622 25.7211 30.3622H13.344C11.1312 30.3622 9.33043 28.5609 9.33043 26.3475V15.0209Z" fill="white"/>
<path d="M19.532 26.4523C22.7117 26.4523 25.3001 23.8645 25.3001 20.6824C25.3001 17.5003 22.7132 14.9126 19.532 14.9126C16.3508 14.9126 13.7638 17.5003 13.7638 20.6824C13.7638 23.8645 16.3508 26.4523 19.532 26.4523ZM19.532 17.1022C21.5065 17.1022 23.1125 18.7087 23.1125 20.6838C23.1125 22.659 21.5065 24.2655 19.532 24.2655C17.5574 24.2655 15.9514 22.659 15.9514 20.6838C15.9514 18.7087 17.5574 17.1022 19.532 17.1022Z" fill="white"/>
<path d="M25.8341 15.845C26.6903 15.845 27.3882 15.1484 27.3882 14.2904C27.3882 13.4325 26.6917 12.7358 25.8341 12.7358C24.9764 12.7358 24.2799 13.4325 24.2799 14.2904C24.2799 15.1484 24.9764 15.845 25.8341 15.845Z" fill="white"/>
<defs>
<linearGradient id="paint0_linear_406_2678" x1="5.84381" y1="34.414" x2="34.1562" y2="6.10303" gradientUnits="userSpaceOnUse">
<stop stop-color="#FAAD4F"/>
<stop offset="0.35" stop-color="#DD2A7B"/>
<stop offset="0.62" stop-color="#9537B0"/>
<stop offset="1" stop-color="#515BD4"/>
</linearGradient>
</defs>
</svg>
