<svg width="40" height="41" viewBox="0 0 40 41" fill="none" xmlns="http://www.w3.org/2000/svg">
<rect y="0.257812" width="40" height="40" rx="20" fill="#007EBB"/>
<path d="M10.787 13.2115C10.2614 12.7235 10 12.1194 10 11.4007C10 10.6819 10.2628 10.0513 10.787 9.56184C11.3126 9.07381 11.9893 8.8291 12.8182 8.8291C13.6472 8.8291 14.2973 9.07381 14.8215 9.56184C15.3471 10.0499 15.6085 10.6637 15.6085 11.4007C15.6085 12.1376 15.3457 12.7235 14.8215 13.2115C14.2959 13.6996 13.629 13.9443 12.8182 13.9443C12.0074 13.9443 11.3126 13.6996 10.787 13.2115ZM15.1668 16.011V30.9734H10.4403V16.011H15.1668Z" fill="#FEFFFC"/>
<path d="M30.8995 17.4891C31.9298 18.6077 32.4443 20.1431 32.4443 22.098V30.7091H27.9555V22.7049C27.9555 21.7191 27.6997 20.9528 27.1894 20.4074C26.6792 19.8621 25.9914 19.588 25.1303 19.588C24.2691 19.588 23.5813 19.8607 23.0711 20.4074C22.5608 20.9528 22.305 21.7191 22.305 22.7049V30.7091H17.7897V15.969H22.305V17.9239C22.7621 17.2723 23.3787 16.7577 24.1531 16.3788C24.9276 15.9998 25.7985 15.811 26.7673 15.811C28.4923 15.811 29.8707 16.3704 30.8995 17.4891Z" fill="#FEFFFC"/>
</svg>
