<svg width="52" height="52" viewBox="0 0 52 52" fill="none" xmlns="http://www.w3.org/2000/svg">
<mask id="mask0_559_462" style="mask-type:alpha" maskUnits="userSpaceOnUse" x="0" y="0" width="52" height="52">
<rect width="52" height="52" fill="#D9D9D9"/>
</mask>
<g mask="url(#mask0_559_462)">
<path d="M8.66659 45.5C7.47492 45.5 6.45478 45.0757 5.60617 44.2271C4.75756 43.3785 4.33325 42.3583 4.33325 41.1667V10.8333C4.33325 9.64167 4.75756 8.62153 5.60617 7.77292C6.45478 6.92431 7.47492 6.5 8.66659 6.5H19.4999C20.6916 6.5 21.7117 6.92431 22.5603 7.77292C23.4089 8.62153 23.8333 9.64167 23.8333 10.8333V41.1667C23.8333 42.3583 23.4089 43.3785 22.5603 44.2271C21.7117 45.0757 20.6916 45.5 19.4999 45.5H8.66659ZM32.4999 45.5C31.3083 45.5 30.2881 45.0757 29.4395 44.2271C28.5909 43.3785 28.1666 42.3583 28.1666 41.1667V10.8333C28.1666 9.64167 28.5909 8.62153 29.4395 7.77292C30.2881 6.92431 31.3083 6.5 32.4999 6.5H43.3333C44.5249 6.5 45.5451 6.92431 46.3937 7.77292C47.2423 8.62153 47.6666 9.64167 47.6666 10.8333V41.1667C47.6666 42.3583 47.2423 43.3785 46.3937 44.2271C45.5451 45.0757 44.5249 45.5 43.3333 45.5H32.4999ZM8.66659 41.1667H19.4999V10.8333H8.66659V41.1667ZM32.4999 41.1667H43.3333V10.8333H32.4999V41.1667ZM10.8333 32.5H17.3333V28.1667H10.8333V32.5ZM34.6666 32.5H41.1666V28.1667H34.6666V32.5ZM10.8333 26H17.3333V21.6667H10.8333V26ZM34.6666 26H41.1666V21.6667H34.6666V26ZM10.8333 19.5H17.3333V15.1667H10.8333V19.5ZM34.6666 19.5H41.1666V15.1667H34.6666V19.5Z" fill="#1C1B1F"/>
</g>
</svg>
