<svg width="292" height="395" viewBox="0 0 292 395" fill="none" xmlns="http://www.w3.org/2000/svg">
<path fill-rule="evenodd" clip-rule="evenodd" d="M241.041 348.419C246.009 348.179 244.011 339.489 243.654 336.297C239.721 324.641 240.646 311.923 239.099 299.705C238.135 288.299 236.897 276.929 235.855 265.532C233.81 242.398 219.121 195.302 202.358 187.728C200.246 178.461 191.524 169.812 180.489 169.812C172.963 160.902 163.904 154.631 152.285 155.897C147.484 156.116 142.827 161.209 138.226 162.192C135.65 162.548 112.789 161.633 108.209 164.353C105.02 165.991 102.14 169.018 103.078 172.872C104.574 177.541 99.9237 172.489 90.2222 177.472C70.4394 189.355 82.2607 205.251 82.7846 205.744C70.4394 222.922 59.649 236.858 54.6565 257.855C51.4209 273.443 51.7851 289.535 49.0741 305.204C48.1168 310.636 46.6483 315.883 45.0593 321.159C43.3371 328.064 42.4997 345.273 41.5505 345.427C39.8213 345.856 42.5498 349.407 44.382 349.41C95.1797 357.837 146.778 349.759 197.849 348.439C212.241 347.939 226.649 347.823 241.041 348.419Z" fill="white"/>
<path fill-rule="evenodd" clip-rule="evenodd" d="M164.049 207.26C164.073 207.027 164.387 207.028 164.411 207.26L164.769 210.722C165.206 214.951 165.626 219.172 165.93 223.42C166.31 228.718 166.564 234.015 166.686 239.324C167.113 257.817 167.198 276.32 167.234 294.817C169.735 294.644 172.237 294.477 174.74 294.316C176.438 294.206 178.136 294.101 179.834 293.997L184.165 293.734V293.734L185.947 293.625C187.152 293.55 188.521 293.247 189.363 294.314C189.7 294.742 189.87 295.297 189.555 295.804C188.83 296.974 187.716 296.933 186.457 296.984C185.268 297.032 184.079 297.079 182.891 297.125C180.344 297.224 177.797 297.317 175.249 297.389C172.576 297.464 169.903 297.525 167.23 297.57C167.203 305.379 166.88 313.178 166.531 320.978L166.373 324.488C165.945 333.981 165.486 343.482 164.832 352.962C164.779 353.738 163.681 353.736 163.628 352.962C162.892 342.286 162.407 331.587 161.925 320.897C161.576 313.146 161.373 305.393 161.277 297.639C160.923 297.641 160.57 297.646 160.217 297.648C150.185 297.691 140.156 297.735 130.125 297.641C130.141 297.661 130.158 297.681 130.169 297.707C130.895 299.421 130.964 301.608 130.946 303.447C130.926 305.557 130.642 307.64 130.156 309.692C128.416 317.041 123.926 323.623 118.813 329.065L118.646 329.242C117.44 330.517 116.056 331.797 115.316 333.421C114.559 335.078 114.297 337.017 113.923 338.798L113.88 339.003L112.42 345.745C111.957 347.886 111.825 351.009 110.13 352.554C108.549 353.996 106.454 353.243 105.71 351.387C105.129 349.938 105.707 348.347 106.052 346.9L108.748 335.563C109.191 333.714 109.676 331.853 110.632 330.193C111.612 328.491 113.048 327.258 114.513 325.997C117.288 323.607 119.835 320.872 121.989 317.911C124.143 314.95 125.983 311.687 127.274 308.256C127.92 306.538 128.45 304.754 128.815 302.955C129.162 301.247 129.159 299.479 129.53 297.79C129.556 297.674 129.654 297.594 129.767 297.558C129.74 297.483 129.781 297.381 129.887 297.374L138.091 296.847C145.384 296.377 152.676 295.894 159.962 295.343L161.25 295.25V295.25C161.15 284.904 161.235 274.556 161.421 264.207C161.593 254.716 161.596 245.223 161.878 235.733C162.019 231.023 162.321 226.325 162.658 221.625C163.002 216.818 163.554 212.052 164.049 207.26ZM87.0159 262.289C86.9285 261.762 87.5914 261.436 87.897 261.918C91.3905 267.425 93.0749 273.406 93.7848 279.851C94.412 285.538 94.2272 291.308 93.9149 297.011C93.5817 303.093 93.1931 309.174 92.8001 315.252L92.1963 324.575V324.575L90.681 347.944C90.5726 349.616 90.1932 351.136 88.754 351.913C88.5717 352.065 88.3818 352.202 88.1605 352.32C87.3829 352.736 86.3517 352.526 85.9021 351.728L86.0824 351.847C86.2394 351.945 86.0631 351.807 85.5533 351.433L85.1207 350.873V350.873C84.8063 350.4 84.6056 349.936 84.5249 349.374C84.3994 348.501 84.5619 347.544 84.6189 346.667L85.6122 331.343V331.343C86.3846 319.429 87.2865 307.519 87.9664 295.6C88.2831 290.045 88.5049 284.484 88.3548 278.919C88.2052 273.385 87.9232 267.757 87.0159 262.289ZM117.237 159.705L117.431 159.672C124.37 158.519 131.915 158.735 138.257 162.08C138.309 162.108 138.285 162.195 138.226 162.192L136.185 162.111C129.723 161.858 123.282 161.708 116.928 163.226L116.278 163.383C113.99 163.941 111.6 164.625 109.762 166.136C108.006 167.581 107.131 169.809 106.29 171.861L106.177 172.132C105.324 174.158 104.244 176.08 102.374 177.347C99.951 178.987 97.0374 178.786 94.2596 179.009C89.3686 179.402 85.3698 182.947 83.3803 187.285C82.1755 189.912 81.6617 192.857 81.5599 195.73C81.5077 197.192 81.5002 198.712 81.6951 200.164C81.7573 200.629 82.3315 202.321 82.6243 202.28C83.2749 202.19 83.8697 202.53 84.0725 203.05C85.6795 201.497 87.3328 199.989 89.0393 198.535C93.2931 194.912 97.8749 191.629 102.7 188.807C106.383 186.654 110.267 184.52 114.29 182.907C113.971 182.9 113.656 182.963 113.352 183.121C113.219 183.191 113.087 183.024 113.192 182.913C114.459 181.58 115.977 181.391 117.506 181.746C117.833 181.642 118.16 181.542 118.488 181.446C118.651 181.399 118.732 181.624 118.599 181.711L118.223 181.951V181.951C119.892 182.51 121.531 183.609 122.828 184.476C126.555 186.967 129.835 190.012 133.16 193L133.764 193.541C136.691 196.155 139.693 198.695 143.018 200.792C144.759 201.889 146.587 202.904 148.505 203.659C150.15 204.307 152.828 204.715 153.598 206.454C154.283 207.286 153.997 208.347 153.195 208.907C151.842 210.396 149.137 209.434 147.525 208.814C145.582 208.067 143.7 207.168 141.904 206.114C138.419 204.068 135.206 201.524 132.212 198.817C129.086 195.991 126.137 192.988 123.096 190.073C121.778 188.809 120.491 187.516 119.172 186.255L118.509 185.627C117.835 184.996 116.876 184.011 115.85 183.415C113.917 184.568 111.955 185.674 110.04 186.856C107.366 188.507 104.771 190.277 102.217 192.105C97.2983 195.625 92.6376 199.567 88.3108 203.792C80.3754 211.541 73.6147 220.389 67.7086 229.758L67.2601 230.472C63.904 235.835 60.7302 241.37 58.4798 247.296C56.0037 253.816 54.7995 260.673 54.1453 267.595C53.496 274.467 53.277 281.373 52.5514 288.239C51.8072 295.28 50.3411 302.166 48.6734 309.039L48.2756 310.668C46.7666 316.824 45.2091 322.979 44.4335 329.28C44.0194 332.645 43.7703 336.057 43.8266 339.45C43.8831 342.862 44.4193 346.199 44.8519 349.576C45.0177 350.869 43.7448 351.949 42.6059 352.121C41.296 352.317 40.1707 351.481 39.7635 350.264C38.4942 346.471 38.2637 342.277 38.3035 338.296C38.3436 334.253 38.8595 330.237 39.5854 326.265C41.013 318.45 43.2161 310.798 45.0591 303.077C46.6833 296.272 47.7735 289.455 48.3611 282.483C48.971 275.25 49.3363 267.993 50.449 260.813C51.5474 253.724 53.614 246.953 56.7306 240.489C59.5684 234.603 63.1058 229.064 66.8144 223.694C71.318 217.174 76.2643 210.97 81.7933 205.317C81.2967 205.295 80.7867 205.135 80.3184 204.843C78.8856 203.949 78.2183 202.201 78.0132 200.604C77.5331 196.87 77.649 192.971 78.6093 189.32C80.1585 183.43 84.1791 178.197 90.0063 176.074C91.5061 175.527 93.1006 175.328 94.6901 175.288C96.1984 175.251 97.8458 175.447 99.3012 174.969C101.618 174.208 102.611 171.479 103.48 169.411L103.521 169.316C104.636 166.68 105.975 164.421 108.39 162.775C110.967 161.019 114.197 160.22 117.237 159.705V159.705ZM183.168 170.128C185.253 169.405 187.86 170.061 189.899 170.693C192.171 171.398 194.27 172.695 196.07 174.235C197.969 175.86 199.538 177.866 200.647 180.107L200.753 180.323C201.765 182.402 202.919 185.256 202.408 187.54C202.393 187.605 202.377 187.667 202.358 187.728C206.495 189.764 210.315 192.316 213.642 195.549C217.517 199.314 220.797 203.598 223.573 208.226C234.599 226.608 236.539 248.685 237.841 269.649L238.166 274.964C238.873 286.442 239.701 297.893 241.85 309.212L242.007 310.03C244.304 321.881 247.593 333.823 247.26 345.981C247.16 349.623 241.777 349.599 241.621 345.981C241.034 332.363 237.856 319.215 235.704 305.81C231.918 282.227 233.815 257.913 228.451 234.566C226.346 225.403 223.085 216.516 218.428 208.337C216.128 204.297 213.496 200.392 210.413 196.907C207.76 193.908 205.004 191.021 201.904 188.5C200.913 189.492 198.934 188.987 198.417 187.54C198.062 186.546 198.165 185.384 197.937 184.342C197.726 183.376 197.434 182.418 197.046 181.508C196.271 179.694 195.134 177.953 193.821 176.485C192.403 174.898 190.773 173.58 188.949 172.492C187.113 171.396 185.105 171.068 183.168 170.268C183.103 170.241 183.097 170.153 183.168 170.128ZM191.269 296.168C191.272 296.072 191.385 296.027 191.454 296.091C192.185 296.763 192.627 297.729 193.165 298.557C193.786 299.511 194.437 300.445 195.121 301.356C196.49 303.18 198.014 304.899 199.55 306.584C200.978 308.151 202.501 309.651 204.081 311.065C205.792 312.598 207.71 313.966 209.265 315.663C212.509 319.204 213.033 324.065 213.718 328.629L213.793 329.122C214.21 331.831 214.584 334.546 214.921 337.266C215.085 338.589 215.249 339.913 215.382 341.239L215.423 341.659C215.542 342.958 215.575 344.275 214.829 345.409C214.031 346.623 212.217 347.048 211.138 345.885C209.284 343.885 209.632 340.334 209.391 337.762C209.191 335.636 208.965 333.511 208.712 331.39L208.584 330.33C208.286 327.917 208.043 325.456 207.492 323.085C207.005 320.998 206.078 319.422 204.557 317.909C203.024 316.386 201.432 314.963 200.017 313.322C198.517 311.582 197.164 309.716 195.944 307.768C194.901 306.103 194.065 304.29 193.299 302.479L193.172 302.177C192.432 300.412 191.211 298.113 191.269 296.168ZM218.03 220.321C218.047 220.075 218.411 220.071 218.416 220.321C218.462 222.439 218.506 224.557 218.55 226.676C218.904 243.746 218.686 260.856 220.398 277.867C221.206 285.888 222.693 293.791 224.414 301.661C225.295 305.688 226.218 309.705 227.096 313.733C227.952 317.658 228.869 321.602 229.548 325.564C230.214 329.457 230.812 333.381 231.08 337.325L231.113 337.839C231.228 339.75 231.779 342.559 230.727 344.253C229.587 346.087 227.405 346.12 226.184 344.369C225.038 342.725 225.323 339.8 225.12 337.839C224.914 335.841 224.696 333.841 224.449 331.848C223.967 327.959 223.331 324.079 222.67 320.217C221.293 312.174 219.296 304.232 217.822 296.202C216.311 287.973 215.237 279.686 215.192 271.308C215.147 262.859 216.041 254.426 216.492 245.996C216.951 237.433 217.472 228.877 218.03 220.321ZM137.401 167.228C137.86 165.685 139.477 164.72 141.055 165.153C142.5 165.551 143.694 167.306 143.129 168.807C142.512 170.446 141.434 171.843 140.525 173.332C139.686 174.708 138.461 175.792 137.606 177.143L138.548 178.159C139.02 178.666 139.493 179.17 139.971 179.665L141.614 181.368C142.894 182.691 144.183 184.008 145.507 185.285C149.402 189.042 153.358 192.676 157.72 195.893C158.713 196.625 159.714 197.353 160.742 198.035L161.126 198.289C161.832 198.751 162.619 199.206 163.472 199.127C165.543 198.937 167.415 196.737 168.839 195.367L168.913 195.296C172.441 191.939 175.708 188.268 178.564 184.322C179.198 183.445 179.812 182.553 180.41 181.651C179.029 180.038 179.359 176.889 179.283 174.933C179.229 173.557 179.225 172.181 179.217 170.805L179.214 170.527C179.197 169.636 179.157 168.782 179.735 168.049C179.768 168.006 179.838 168.007 179.881 168.03C180.673 168.445 180.917 169.14 181.255 169.919L181.29 170C181.701 170.935 182.095 171.88 182.494 172.82C182.911 173.806 183.293 174.805 183.681 175.802C183.861 176.266 184.034 176.731 184.202 177.199C184.305 177.498 184.411 177.796 184.52 178.093L184.545 178.116C184.689 178.238 184.811 178.367 184.917 178.5C185.358 178.721 185.71 179.124 185.874 179.716C186.233 181.004 185.491 182.054 184.829 183.076C182.14 187.231 179.075 191.189 175.668 194.78C173.976 196.564 172.196 198.268 170.343 199.884L170.019 200.165C168.354 201.596 166.546 202.951 164.323 203.286C161.721 203.677 159.604 202.383 157.612 200.893L157.413 200.743C155.525 199.313 153.675 197.834 151.882 196.286C148.227 193.13 144.75 189.742 141.664 186.024C138.663 182.408 135.696 178.365 133.845 174.014C133.732 173.749 134.029 173.472 134.261 173.693C135.165 174.554 136.035 175.461 136.894 176.38C136.918 175.027 136.668 173.663 136.807 172.302C136.977 170.648 136.928 168.82 137.401 167.228Z" fill="black"/>
<path fill-rule="evenodd" clip-rule="evenodd" d="M157.835 65.791C172.43 65.791 187.526 77.1051 192.876 84.3249C197.374 90.395 199.795 117.844 199.795 136.394C199.795 140.273 201.936 147.587 201.311 151.298C199.022 164.896 189.048 176.301 169.308 176.301C149.567 176.301 135.414 168.476 120.741 147.465C113.622 147.465 110.172 142.005 110.122 133.388C110.071 124.772 116.993 121.637 116.993 121.637C116.993 121.637 114.525 87.6318 120.741 78.7786C126.957 69.9254 143.239 65.791 157.835 65.791Z" fill="white"/>
<path fill-rule="evenodd" clip-rule="evenodd" d="M151.693 60.9831C160.908 60.0499 169.937 60.834 179.019 62.4564C179.713 62.5821 180.106 63.0373 180.252 63.5846C184.53 63.78 188.812 64.0939 193.084 64.3278C194.634 64.4127 195.513 65.9445 194.806 67.3278C194.665 67.6026 194.518 67.87 194.369 68.1373L194.556 68.0756C195.841 67.6633 197.23 67.46 198.482 68.1144C200.075 68.9473 200.7 70.7851 200.348 72.4766C200.258 72.9085 200.107 73.3224 199.934 73.7262C200.284 73.7031 200.636 73.7108 200.986 73.7571C202.847 74.0039 204.229 75.4306 204.327 77.3303C204.471 80.199 202.623 83.1092 200.446 85.163C200.762 85.8136 200.883 86.5797 200.751 87.356C200.489 88.8907 199.359 89.8097 198.048 90.4092C198.595 92.1447 198.853 93.9591 198.701 95.8133C198.65 96.4323 198.109 96.9436 197.537 97.0691C199.667 102.934 200.745 109.23 201.52 115.366C202.073 119.731 202.345 124.122 202.378 128.52C202.395 130.506 202.362 132.494 202.279 134.48L202.245 135.224C202.142 137.371 202.137 139.625 201.752 141.749C203.068 143.988 203.597 146.767 203.821 149.276C204.098 152.381 203.659 155.584 202.679 158.538C198.983 169.7 187.828 176.744 176.623 178.574C166.251 180.268 154.25 177.988 148.189 168.566C148.094 168.417 148.297 168.294 148.415 168.392C152.752 171.918 157.782 173.492 163.247 174.258C172.696 175.579 183.316 173.337 190.899 167.394C194.539 164.541 197.163 160.387 198.317 155.916C198.906 153.631 199.109 151.248 198.878 148.896C198.641 146.51 197.585 144.474 196.919 142.22C196.696 141.458 196.932 140.751 197.397 140.248C197.528 138.417 197.837 136.571 197.955 134.747C198.086 132.672 198.166 130.597 198.194 128.52C198.248 124.212 198.068 119.895 197.706 115.605C197.043 107.749 195.282 100.083 194.249 92.294C193.866 92.6372 193.317 92.7781 192.743 92.4783L192.683 92.4457L192.37 92.266C192.352 92.266 192.331 92.2686 192.313 92.2709C190.167 92.4794 187.941 92.1812 185.884 91.5408C183.733 90.8727 181.736 89.8444 179.952 88.4743C179.613 90.1938 179.471 91.9316 179.469 93.6848C179.466 94.7799 178.307 95.3483 177.387 94.8804C173.307 92.8082 169.411 90.4203 165.712 87.7365C165.28 89.9498 164.848 92.1629 164.413 94.3789C164.247 95.2326 163.159 95.5771 162.462 95.1709C159.692 93.5588 157.299 91.4485 155.35 88.9393C154.961 89.6832 154.571 90.4271 154.178 91.1693L153.587 92.2812C153.004 93.3737 152.222 94.5822 150.945 94.9316C149.593 95.3017 148.464 94.4254 148.009 93.2015C147.87 92.8213 147.742 92.4303 147.624 92.037C146.472 94.667 145.171 97.2377 143.701 99.6901C141.496 103.369 138.848 106.646 136.208 110.009C135.406 111.029 134.034 110.055 133.923 109.063C133.859 108.479 133.805 107.893 133.758 107.309C132.22 110.414 130.615 113.489 128.867 116.475L129.117 117.456V117.456C129.839 120.356 130.438 123.275 131.089 126.19C131.299 127.13 130.8 128.475 129.701 128.635C128.389 128.826 127.147 129.497 125.803 129.036C124.337 128.532 124.047 127.265 123.355 126.064C123.217 125.825 123.056 125.605 122.884 125.396L122.84 125.453V125.453C122.732 125.595 122.475 125.441 122.539 125.279L122.614 125.092V125.092C122.02 124.46 121.308 123.934 120.654 123.368C119.099 123.106 117.351 123.393 116.28 124.024C113.84 125.464 112.72 128.43 112.697 131.158C112.668 134.351 113.658 137.939 115.329 140.669C116.064 141.87 117.072 142.955 118.403 143.487C119.724 144.016 121.156 143.852 122.5 144.35C123.39 144.682 123.937 145.669 123.4 146.564C123.364 146.626 123.323 146.682 123.284 146.741L123.684 147.272C123.959 147.64 124.246 148.033 124.513 148.443C125.197 149.23 125.916 149.988 126.613 150.762C127.9 152.188 129.15 153.654 130.417 155.101C131.612 156.466 132.877 157.749 134.18 159.011C135.412 160.207 136.949 161.212 138.08 162.487C139.18 163.731 139.478 165.903 137.668 166.623C135.666 167.422 133.893 165.55 132.546 164.302L132.489 164.25C130.018 161.976 127.787 159.378 126.015 156.517C124.26 157.712 121.722 157.826 119.974 156.631C119.054 156.003 118.349 154.946 118.006 153.797C117.683 153.87 117.359 153.912 117.044 153.907C116.882 154.001 116.719 154.093 116.555 154.178C115.251 154.857 113.65 154.554 113.054 153.111C112.511 151.802 113.071 150.315 113.56 149.053L113.661 148.793C113.938 148.073 114.244 147.289 114.625 146.551C113.566 145.754 112.66 144.764 111.895 143.639C109.322 139.847 108.037 134.302 108.605 129.777C108.946 127.047 110.229 124.22 112.329 122.379L112.252 122.178V122.178C111.663 120.685 111.128 119.186 110.782 117.608C110.376 115.762 110.177 113.849 109.998 111.97C109.617 108.001 109.72 103.942 110.227 99.9883C111.178 92.5462 113.589 85.2403 117.868 79.0476C116.655 77.5949 115.694 75.8854 116.195 73.919C116.424 73.0165 116.945 72.1607 117.732 71.6437C118.166 71.3586 118.683 71.3149 119.118 71.0784L119.248 71.0065C119.439 70.8952 119.293 70.907 119.179 70.3895C118.729 68.3224 119.102 66.3252 121.377 65.6389C123.518 64.9936 125.544 66.3638 126.811 67.9962C130.127 65.6438 134.496 64.4127 138.339 63.3664C142.709 62.181 147.192 61.4409 151.693 60.9831ZM115.876 130.315C115.861 128.631 117.457 127.592 119.028 127.867C120.082 128.051 120.962 128.681 121.789 129.331L122.191 129.65C123.197 130.44 124.353 131.292 124.952 132.41C125.831 134.06 123.973 136.281 122.238 135.124C121.048 134.327 120.285 133.048 119.504 131.861L119.424 131.739C119.069 131.207 118.758 130.641 118.272 130.214L118.167 130.122C118.007 129.986 117.835 129.862 117.629 129.803C117.231 129.689 116.494 129.849 116.318 130.323L116.303 130.371C116.239 130.61 115.879 130.559 115.876 130.315Z" fill="black"/>
<path fill-rule="evenodd" clip-rule="evenodd" d="M180.454 155.996C178.561 156.544 176.528 156.593 174.598 156.027C172.848 155.513 171.05 154.382 169.762 152.886C168.617 151.557 167.876 149.942 167.905 148.218C167.908 148.021 167.979 147.856 168.087 147.729C168.203 147.591 168.366 147.497 168.541 147.456C168.72 147.414 168.91 147.429 169.071 147.502C169.218 147.569 169.343 147.681 169.421 147.846C169.619 148.106 169.816 148.363 170.014 148.612C171.607 150.578 173.148 152.047 175.542 152.574C176.841 152.86 178.139 152.734 179.329 152.297C180.603 151.83 181.755 151.009 182.658 149.958C183.066 149.483 183.547 149.289 184.018 149.286C184.552 149.282 185.079 149.53 185.476 149.927C185.867 150.316 186.129 150.846 186.152 151.399C186.173 151.886 186.015 152.393 185.593 152.846C184.203 154.338 182.403 155.432 180.454 155.996ZM180.396 131.371C182.337 132.551 185.295 135.302 183.206 138.227C180.749 140.807 177.21 137.849 175.466 136.512C173.849 135.475 172.032 138.141 173.532 139.352C186.134 148.682 191.247 131.679 181.378 129.984C180.291 129.797 179.887 131.006 180.396 131.371ZM162.239 126.179C161.615 125.78 160.881 125.643 160.068 126.013C159.432 126.302 158.317 127.266 157.542 128.532C157.011 129.399 156.634 130.416 156.713 131.475C156.731 131.721 156.64 131.902 156.497 132.036C156.384 132.142 156.22 132.22 156.028 132.244C155.865 132.265 155.682 132.246 155.534 132.2C155.252 132.112 155.102 131.929 155.046 131.779C154.503 130.336 154.737 128.726 155.346 127.274C156.167 125.314 157.659 123.672 158.637 123.142C160.31 122.236 162.283 122.195 163.958 123.118C165.384 123.903 166.276 125.172 167.162 126.465C167.351 126.74 167.538 127.013 167.731 127.281C168.119 127.818 168.157 128.351 168.007 128.807C167.841 129.314 167.417 129.741 166.887 129.964C166.397 130.171 165.828 130.2 165.325 129.988C164.9 129.808 164.51 129.459 164.263 128.866C163.848 127.867 163.155 126.765 162.239 126.179V126.179ZM193.923 128.401C193.496 128.624 193.162 128.691 192.688 128.549C192.426 128.47 192.167 128.319 191.964 128.116C191.763 127.915 191.618 127.665 191.561 127.388C191.423 126.704 191.048 126.063 190.515 125.645C190.059 125.288 189.483 125.099 188.845 125.206C188.156 125.321 187.499 125.763 187.047 126.284C186.896 126.458 186.778 126.656 186.658 126.853C186.436 127.221 186.219 127.563 185.912 127.833C185.796 127.935 185.62 128.007 185.45 128.007C185.381 128.007 185.311 127.995 185.244 127.974C184.558 127.286 184.426 126.764 184.449 126.246C184.472 125.703 184.686 125.153 185.032 124.64C185.844 123.436 187.385 122.449 188.424 122.226C189.849 121.92 191.263 122.287 192.397 123.083C193.564 123.901 194.428 125.172 194.698 126.604C194.763 126.949 194.735 127.322 194.604 127.644C194.475 127.96 194.252 128.23 193.923 128.401ZM165.38 113.347C164.525 114.179 163.513 114.308 162.49 114.423C161.921 114.487 161.467 114.539 161.021 114.64C159.793 114.917 158.58 115.335 157.472 115.936C156.315 116.564 155.054 117.322 154.146 118.293C153.931 118.524 153.727 118.767 153.523 119.01C153.338 119.231 153.159 119.445 152.97 119.65C152.754 119.887 152.548 120.134 152.344 120.381C152.217 120.589 152.192 120.641 152.167 120.694C152.128 120.774 152.084 120.864 152.033 120.96C151.963 121.092 151.881 121.236 151.796 121.367C151.653 121.606 151.577 121.672 151.511 121.702C151.402 121.75 151.298 121.774 151.197 121.761C151.103 121.749 151.014 121.704 150.926 121.629C150.487 121.259 150.357 120.65 150.371 120.004C150.391 119.024 150.752 117.939 151.086 117.272C151.86 115.722 152.935 114.11 154.227 112.954C155.701 111.633 157.314 110.633 159.167 109.944C160.319 109.516 161.652 109.123 162.906 109.173C163.809 109.209 164.671 109.477 165.383 110.147C165.82 110.559 166.03 111.144 166.03 111.729C166.03 112.325 165.812 112.926 165.38 113.347ZM195.661 120.973C195.607 121.062 195.532 121.123 195.448 121.16C195.36 121.199 195.262 121.21 195.168 121.194C195.075 121.178 194.986 121.136 194.915 121.071C194.848 121.009 194.796 120.926 194.773 120.825C194.206 118.333 193.104 116.478 190.752 115.283C189.595 114.694 188.265 114.321 187.006 114.023C186.64 113.936 186.253 113.88 185.864 113.823C184.644 113.645 183.414 113.441 182.619 112.454C182.139 111.86 181.938 111.1 182.052 110.405C182.159 109.75 182.541 109.15 183.236 108.791C184.967 107.896 187.118 108.774 188.865 109.522C188.995 109.577 189.122 109.632 189.247 109.684C190.955 110.406 192.514 111.358 193.795 112.72C194.812 113.8 195.754 115.398 196.133 117.041C196.449 118.408 196.375 119.803 195.661 120.973Z" fill="black"/>
<path fill-rule="evenodd" clip-rule="evenodd" d="M180.679 141.387C177.82 140.099 172.687 141.223 170.823 141.669C166.491 142.708 162.132 144.954 160.786 148.472C159.268 152.437 162.296 153.685 162.742 153.481C165.741 153.692 169.312 151.807 172.455 151.32C175.007 150.922 177.698 150.574 180.089 149.218C181.834 150.178 185.776 150.697 188.957 151.537C191.667 152.251 192.841 153.801 195.353 153.472C198.363 153.077 197.131 146.744 193.776 144.179C190.104 141.372 183.893 140.233 180.679 141.387ZM186.339 168.462C183.838 169.072 183.67 163.59 183.39 161.653C183.171 160.14 181.936 156.238 178.807 156.407C175.677 156.575 174.5 159.844 174.659 161.878C174.762 163.196 175.977 169.875 172.099 170.72C169.626 170.712 166.766 170.545 164.166 170.065C161.107 169.372 157.128 166.946 156.077 171.724C155.699 173.444 169.177 178.554 175.158 179.016C181.224 180.245 188.321 178.355 192.64 173.714C193.622 172.659 196.389 168.276 196.587 167.203C197.001 164.947 196.042 163.495 193.251 164.29C191.279 165.343 187.947 168.07 186.339 168.462Z" fill="black"/>
</svg>
