<svg width="292" height="395" viewBox="0 0 292 395" fill="none" xmlns="http://www.w3.org/2000/svg">
<path fill-rule="evenodd" clip-rule="evenodd" d="M52.3269 332.439C51.977 332.451 52.0873 332.348 52.2158 332.324C52.2528 332.362 52.2899 332.401 52.3269 332.439ZM62.6561 340.119C72.4307 341.277 82.2173 340.217 91.9438 339.154C111.649 337.693 131.215 341.949 150.959 340.651C175.633 339.612 200.374 337.659 224.966 340.95C231.768 341.106 242.617 342.942 240.15 332.411C236.91 305.337 232.578 278.399 227.937 251.534C224.004 236.472 223.72 210.421 212.95 199.947C211.376 198.509 205.728 193.858 204.235 193.234C196.812 190.47 183.43 188.313 177.909 182.454C173.437 174.887 175.517 164.56 168.563 158.467C162.469 153.491 149.167 154.543 142.651 158.28C137.51 161.613 136.705 168.088 133.502 172.877C132.711 174.024 130.835 176.79 129.775 177.682C127.195 180.166 118.134 182.776 115.517 183.255C100.751 186.281 93.3881 188.151 81.7742 197.965C51.4283 228.948 55.7299 283.747 47.3331 324.263C46.9894 328.717 44.282 334.761 49.1123 337.628C53.2725 339.621 58.164 339.404 62.6561 340.119Z" fill="white"/>
<path fill-rule="evenodd" clip-rule="evenodd" d="M174.523 172.154C174.56 172.049 174.729 172.031 174.755 172.154C175.169 174.048 175.945 176.126 176.731 177.902C177.531 179.702 178.623 181.355 180.004 182.758C182.895 185.699 186.615 187.041 190.694 187.044L190.792 187.046C190.811 186.909 190.832 186.772 190.851 186.635L190.879 186.429C191.252 183.612 194.596 183.694 195.249 185.82C195.58 185.925 195.912 186.031 196.241 186.141L196.307 186.165C196.861 186.376 198.737 187.31 199.081 187.062C199.84 186.516 200.706 187.141 200.994 187.838C201.464 188.978 201.543 190.388 201.696 191.626L201.716 191.786L201.739 191.979C212.471 194.768 218.493 205.506 221.567 215.398C223.233 220.761 224.323 226.293 225.418 231.794C226.59 237.678 227.67 243.578 228.813 249.465C231.068 261.066 233.201 272.694 235.054 284.364L235.592 287.754C237.29 298.486 238.943 309.211 240.334 319.992C241.085 325.804 241.789 331.621 242.467 337.444C242.589 338.482 242.71 339.521 242.829 340.56L243.008 342.12C243.167 343.518 243.437 344.902 242.745 346.21C241.247 349.048 236.707 349.027 236.45 345.393C236.399 344.67 236.643 344.117 237.046 343.732L237.041 343.671C237.037 343.634 237.033 343.608 237.031 343.596C236.897 342.873 236.861 342.11 236.779 341.379C236.599 339.822 236.424 338.264 236.247 336.704C235.905 333.732 235.561 330.76 235.203 327.791C234.481 321.768 233.718 315.753 232.908 309.742L232.106 303.8C229.422 283.991 226.625 264.186 222.945 244.534C221.943 239.185 220.912 233.843 219.855 228.504C218.853 223.447 217.727 218.414 216.046 213.532C213.301 205.558 208.502 198.09 201.839 192.856C201.942 193.856 202.017 194.861 202.112 195.861C202.356 198.429 202.616 200.995 202.878 203.56C203.831 212.856 205.124 222.136 207.33 231.226C208.422 235.73 209.754 240.174 211.376 244.516C212.175 246.655 213.046 248.766 214.003 250.838C214.949 252.886 216.607 255.077 216.707 257.359C216.753 258.416 215.648 259.354 214.625 259.241C215.103 263.447 215.373 267.696 215.658 271.892C216.074 277.968 216.406 284.056 216.892 290.128C217.761 301.005 218.85 311.866 219.992 322.717C220.218 324.868 220.464 327.017 220.707 329.166L220.911 330.971C221.048 332.141 221.255 333.543 220.634 334.58C221.19 335.92 221.57 337.295 221.791 338.729C222.071 340.513 221.051 342.513 218.969 342.436C218.732 342.428 218.496 342.408 218.259 342.382C216.329 342.83 214.404 343.223 212.399 343.236C209.839 343.254 207.273 343.202 204.713 343.184C199.76 343.151 194.807 343.117 189.853 343.076C171.922 342.932 153.983 342.94 136.055 342.652L128.881 342.538C122.305 342.433 115.728 342.311 109.155 342.071C104.629 341.907 100.102 341.74 95.5781 341.557L94.657 341.522C90.6652 341.377 86.6686 341.302 82.7208 340.691C82.6219 340.674 82.5791 340.571 82.5944 340.481L82.6 340.457L82.4278 340.418C82.3276 340.85 80.2455 339.035 80.2609 337.83C79.3973 336.706 79.8008 334.912 79.8934 333.611C79.9833 332.344 80.0964 331.074 80.1967 329.806C80.41 327.1 80.5925 324.39 80.811 321.683C81.6927 310.768 82.4535 299.825 82.947 288.886C83.1964 283.372 83.3969 277.856 83.6076 272.341C83.7025 269.831 83.8347 267.318 84.0809 264.819L84.1448 264.195C84.4147 261.66 84.389 258.935 85.3221 256.547C85.335 256.514 85.3786 256.514 85.3915 256.547C86.3348 258.871 86.4248 261.573 86.615 264.123C86.6484 264.113 86.6819 264.107 86.7178 264.1C88.021 263.48 89.3371 262.922 90.5709 262.156C90.738 262.054 90.8999 261.945 91.0644 261.84C93.0051 255.902 95.2542 250.061 97.3234 244.162C104.009 225.085 107.7 204.768 108.518 184.568C103.418 187.856 97.8638 190.414 92.4646 193.161L91.9589 193.419C86.6407 196.139 81.5487 199.226 77.7625 203.943C74.4621 208.051 72.3055 213.056 70.2877 217.881C68.1208 223.067 66.1673 228.344 64.3809 233.671C60.7566 244.478 57.9497 255.55 55.7597 266.735C53.5979 277.773 52.0531 288.894 51.0198 300.092C50.4929 305.804 50.0122 311.521 49.6086 317.246C49.403 320.143 49.2205 323.043 49.0509 325.945C48.9686 327.354 48.9069 328.765 48.8144 330.174C48.7578 330.986 48.7476 331.824 48.4802 332.595C48.2566 333.238 47.8608 333.776 47.4906 334.344C46.8146 335.38 45.1078 335.567 44.4729 334.344L44.198 333.814C43.8341 333.108 43.5018 332.397 43.4525 331.583C43.4062 330.812 43.5013 330.007 43.545 329.233C43.6298 327.668 43.7275 326.1 43.8252 324.534C44.0308 321.241 44.2596 317.948 44.5166 314.657C45.0281 308.066 45.6862 301.493 46.5139 294.933C49.4261 271.892 53.6314 248.971 61.6562 227.105C63.6406 221.699 65.8537 216.336 68.3522 211.146C70.7684 206.128 73.8246 201.391 78.2611 197.936C82.345 194.754 87.0922 192.625 91.8091 190.559L92.3985 190.301C97.6858 187.99 102.963 185.501 108.484 183.784C108.361 183.799 108.24 183.815 108.135 183.851C108.014 183.889 107.942 183.732 108.017 183.648C108.33 183.301 108.461 182.943 108.821 182.601C109.07 182.365 109.328 182.142 109.594 181.926L109.977 181.621C110.678 181.065 111.414 180.497 112.296 180.303C113.543 180.031 114.155 181.164 113.805 182.051C113.985 181.817 114.468 181.887 114.594 182.208C118.696 192.789 121.39 203.989 126.912 213.987C130.988 221.372 136.458 228.192 143.717 232.653C147.616 235.048 152.079 236.889 156.687 237.18C160.826 237.439 164.807 236.388 168.326 234.216C175.148 230.007 179.603 222.619 182.78 215.46C186.273 207.578 188.766 199.18 190.231 190.666C185.589 190.73 180.69 188.612 177.603 185.159C175.978 183.342 174.768 181.128 174.153 178.768C173.534 176.388 173.732 174.432 174.523 172.154ZM135.579 165.972C136.145 164.961 137.399 164.627 138.425 165.038C139.563 165.496 139.905 166.601 139.743 167.725C139.555 169.041 138.71 170.463 138.052 171.612C137.363 172.815 136.476 173.923 135.558 174.959C133.831 176.912 131.983 178.673 129.791 180.113C127.608 181.545 125.14 182.617 122.604 183.216L122.001 183.356C120.027 183.808 117.22 184.325 115.576 183.252C115.496 183.2 115.499 183.095 115.576 183.043C116.465 182.424 117.656 182.313 118.678 182.021C119.794 181.699 120.912 181.334 121.979 180.876C124.084 179.971 126.099 178.779 127.893 177.355C129.695 175.925 131.438 174.221 132.644 172.254C133.25 171.267 133.767 170.231 134.263 169.188C134.764 168.141 135.016 166.979 135.579 165.972Z" fill="black"/>
<path fill-rule="evenodd" clip-rule="evenodd" d="M197.794 109.02C197.184 101.117 198.13 92.8333 195.083 85.3212C189.771 72.8573 174.873 68.7015 163.324 63.9563C158.698 62.589 143.129 62.3979 137.711 60.5883C125.45 56.4927 122.521 51.6129 112.778 59.411C111.134 60.7432 110.105 62.191 109.354 64.1691L109.385 64.1776C109.171 65.0023 109.401 65.8252 109.884 66.4537C105.659 70.7719 103.892 77.2459 106.059 82.9942C113.132 97.9528 112.8 106.041 110.521 122.122C107.545 137.135 114.345 142.619 125.608 150.788C125.149 151.677 125.054 152.858 125.652 153.643C138.676 171.946 163.232 180.685 184.271 171.395C192.811 167.593 196.624 158.498 198.8 150.29C201.335 141.1 202.114 131.416 200.05 122.055C199.218 117.725 198.133 113.427 197.794 109.02Z" fill="white"/>
<path fill-rule="evenodd" clip-rule="evenodd" d="M122.672 21.4579C124.253 21.2204 125.447 22.2014 126.014 23.5839L126.044 23.6584C126.227 24.1288 126.43 24.5864 126.648 25.0362C130.604 23.0954 136.249 23.5941 138.752 27.5247C140.539 30.3319 139.449 33.6635 138.776 36.6403L138.333 38.6017C139.188 39.1456 139.833 40.1196 139.802 41.1282L139.799 41.2058L139.619 43.9411C140.189 43.3627 140.711 42.7328 141.176 42.0619C141.498 41.4732 141.845 40.8948 142.217 40.3344C144.41 37.0362 149.332 39.9025 147.523 43.4346C147.176 44.1159 146.785 44.7611 146.366 45.3832C145.893 46.3009 145.505 47.2444 145.207 48.2135C146.063 48.5863 146.721 49.414 146.79 50.6634C146.952 53.5811 145.42 56.0156 142.983 57.5451C142.266 57.995 141.526 58.0824 140.855 57.9153C140.737 58.0747 140.619 58.2341 140.505 58.396C141.477 59.1852 142.354 60.085 143.107 61.0824C145.374 60.743 147.654 60.5837 149.934 60.5785C152.72 59.2135 156.057 59.2418 159.051 59.7533C160.979 60.0824 162.83 60.7225 164.727 61.1826C166.726 61.6659 168.757 61.6839 170.78 62.013C173.33 62.4268 175.566 63.6042 176.972 65.4834C178.517 65.5297 180.141 66.162 181.488 67.0207C184.624 69.0207 187.742 71.0489 190.87 73.0618C192.071 73.8345 192.52 75.0682 192.299 76.4442L192.284 76.5322L192.179 77.1029L192.426 77.4541C193.383 78.8062 194.425 80.2224 195.045 81.7147C196.191 83.3676 197.227 85.1003 198.145 86.8869C199.381 89.2879 200.401 91.8329 201.093 94.4447C201.265 95.1054 201.437 95.7712 201.55 96.4447C201.712 97.3959 201.463 98.1336 201.327 99.0462C201.157 100.203 201.095 101.375 200.916 102.535C200.795 103.303 200.142 103.681 199.458 103.702C199.715 105.658 199.9 107.627 200.078 109.581C200.327 112.373 200.497 115.172 200.643 117.972C201.399 119.069 202.944 119.938 204.059 120.239C205.604 120.653 207.223 120.203 208.683 119.676C209.601 119.344 210.354 120.499 209.907 121.27C208.501 123.691 205.493 123.681 203.216 122.609C202.252 122.157 201.406 121.501 200.779 120.648C200.818 121.46 200.859 122.272 200.9 123.087L200.938 123.825C201.401 132.445 202.401 141.362 200.782 149.897C197.978 164.681 185.744 175.938 170.8 176.812C162.959 177.271 156.428 174.954 153.181 173.662C149.934 172.37 151.196 169.735 153.45 170.488C157.334 171.786 164.468 173.719 170.852 172.884C185.899 170.917 198.659 163.395 197.348 131C197.162 126.406 196.59 121.81 196.466 117.216C196.348 112.725 196.392 108.231 196.194 103.743L196.128 102.211C196.05 100.422 195.968 98.6244 195.834 96.8329C195.672 96.1388 195.538 95.4344 195.34 94.7532C194.803 92.8997 194.101 91.0977 193.23 89.3779C193.037 89.5244 192.821 89.6298 192.587 89.671C190.811 89.9897 189.146 89.8997 187.483 89.1594C186.706 88.8175 186.023 88.3625 185.385 87.7995C185.082 87.5347 184.879 87.2776 184.719 87.0103C183.915 87.0231 183.11 86.7815 182.606 86.2031C182.032 85.5438 181.936 84.8629 182.161 84.2326L182.185 84.1697L182.128 84.1491C181.45 85.9049 180.098 87.4499 178.615 88.4936C176.27 90.1491 173.337 90.6272 170.525 90.6709C167.42 90.7172 164.146 90.2391 161.082 89.7506C160.272 89.6221 159.467 89.4756 158.678 89.2776C158.648 89.3085 158.617 89.3445 158.583 89.3753C155.954 91.892 152.255 92.5398 148.918 91.1028C146.991 90.2725 145.374 88.9357 143.945 87.4036C143.924 88.2057 143.883 89.0077 143.814 89.8021L143.785 90.1175C143.643 91.5969 143.369 93.1662 142.251 94.2339C140.444 95.964 137.822 95.2699 135.737 94.1439C135.74 94.1979 135.74 94.2545 135.74 94.311C136.303 96.2236 136.868 98.1388 137.434 100.054L137.556 100.462C137.967 101.822 138.418 103.183 138.542 104.607C138.778 107.326 136.969 110.013 133.946 109.1C132.36 108.623 131.09 107.29 129.871 106.222L129.103 105.558C131.09 112.054 132.468 118.781 132.596 125.56C132.604 125.928 132.288 126.206 131.938 126.218C131.121 126.252 130.242 126.09 129.419 125.763C129.373 125.761 129.327 125.758 129.278 125.751C127.874 125.547 126.571 125.041 125.422 124.293C125.687 125.134 125.805 126.036 125.736 126.979C125.718 127.208 125.361 127.288 125.309 127.036C124.646 123.774 120.829 121.308 117.539 121.933C114.007 122.604 111.406 125.643 110.768 129.1C110.085 132.815 111.393 137.11 113.817 139.977C114.932 141.298 116.4 142.401 118.143 142.678C118.94 142.804 119.767 142.761 120.541 142.534C120.87 142.437 121.178 142.301 121.492 142.172C121.95 141.987 122.484 141.959 122.916 141.763C123.895 141.324 124.88 142.226 124.384 143.231C123.952 144.108 123.564 144.699 122.847 145.151C123.428 145.861 123.955 146.848 124.15 147.113C125.147 148.46 126.16 149.732 127.296 150.964C128.453 152.213 129.715 153.355 131.049 154.411L131.61 154.854C132.895 155.873 134.014 156.818 134.92 158.28C135.635 159.434 134.709 161 133.37 160.982C129.18 160.923 126.134 157.241 123.965 154.025C123.656 153.565 123.366 153.079 123.096 152.581C122.998 152.738 122.89 152.884 122.77 153.018L123.009 153.66C123.718 155.552 120.662 156.789 119.775 155.023C119.13 153.743 118.382 152.524 117.549 151.373C117.058 151.303 116.577 151.005 116.31 150.619C115.634 149.64 114.876 148.65 114.236 147.606C113.881 147.27 113.516 146.946 113.143 146.63C113.035 146.725 112.925 146.82 112.819 146.92C112.352 147.987 111.773 148.961 111.056 149.879L110.902 150.075C109.529 151.806 107.739 153.579 105.525 154.002C104.849 154.131 104.198 153.29 104.797 152.753C106.347 151.36 108.18 150.411 109.609 148.856C110.313 148.09 110.96 147.246 111.516 146.361L111.642 146.157C111.735 146.005 111.83 145.853 111.928 145.699C111.282 145.259 110.637 144.817 109.992 144.375C108.216 145.893 105.903 146.587 103.939 147.844L103.743 147.971C101.967 149.159 100.096 146.532 101.52 145.09C103.09 143.506 104.4 141.617 105.791 139.857C105.137 138.652 104.827 137.228 104.711 135.788C104.666 135.381 104.63 134.973 104.594 134.565C103.597 134.581 102.594 134.239 101.746 133.65L101.425 133.421C100.394 133.75 99.3119 133.91 98.276 133.882C95.8392 133.81 94.8419 131.026 96.3662 129.265C97.9213 127.465 100.643 127.072 102.8 127.946C102.869 127.91 102.941 127.871 103.011 127.833C102.908 127.36 102.931 126.931 103.048 126.554L103.014 126.324C102.54 125.596 102.228 124.765 102.11 123.888C102.016 123.192 102.035 122.503 102.196 121.816C102.249 121.588 102.361 121.351 102.446 121.113C102.27 120.67 102.167 120.212 102.135 119.752C102.086 119.694 102.038 119.634 101.991 119.569C100.921 118.067 101.137 116.256 102.156 115.04C102.16 114.963 102.168 114.886 102.178 114.809C102.119 114.674 102.064 114.539 102.014 114.402C101.019 113.398 100.288 112.19 100.425 110.693C100.505 109.813 100.866 109.02 101.414 108.427C101.317 108.14 101.308 107.807 101.426 107.529C100.551 105.204 100.662 102.403 101.291 99.802C101.152 99.4061 101.08 98.9768 101.096 98.5218C101.168 96.5912 102.838 94.8175 104.818 94.8406C105.056 94.8427 105.279 94.8738 105.493 94.9193L105.496 94.8732C105.572 94.2938 105.731 93.7583 105.964 93.2779C105.85 93.2365 105.744 93.1771 105.651 93.0982C104.383 93.7748 103.041 94.292 101.634 94.6445C100.599 94.9036 99.5394 93.7275 100.182 92.7563C100.481 92.3056 100.81 91.901 101.165 91.5314C100.661 91.5342 100.149 91.5684 99.6306 91.635C98.7001 91.7558 97.6617 91.1208 97.0576 90.2622C96.307 90.9923 95.5539 91.7198 94.8008 92.4473C92.8935 94.2956 90.0121 92.9357 89.7113 90.4987C89.1433 90.347 88.6138 90.09 88.1485 89.7224C85.1411 91.0283 81.905 91.7455 78.5968 91.8817C76.2218 91.9794 74.8337 89.2134 75.9442 87.2597C76.6896 85.9486 77.6149 84.7712 78.6817 83.7481C77.0263 84.2545 75.317 84.6196 73.5717 84.8535C72.6283 84.9795 71.2943 84.198 70.9164 83.3316C69.4718 80 69.5952 76.527 71.2583 73.2854C71.3225 73.1569 71.3945 73.0335 71.4639 72.9101C71.6361 72.4808 71.8238 72.0566 72.0268 71.6402C69.9808 69.5065 69.8034 66.3343 70.9061 63.6788C70.464 62.9615 70.2944 62.0978 70.5951 61.3163C71.4511 59.067 72.6849 56.9898 74.2425 55.2058C74.0935 54.9179 73.9624 54.612 73.8518 54.2829C72.9753 51.6223 73.9906 48.4115 76.0393 46.558C77.327 45.3909 78.8076 44.6917 80.3884 44.2444C81.0542 43.067 81.9101 42.0053 82.9074 41.1107C82.946 41.0259 82.9845 40.9411 83.0282 40.8562C84.5808 37.9308 87.4082 36.3627 90.4388 36.0002C90.557 34.8563 91.3281 33.7637 92.4488 33.409C92.7573 32.4193 93.2174 31.4732 93.8497 30.6146C94.8445 29.2625 96.4973 28.6249 98.0549 29.5118C98.9083 29.9977 99.7257 30.5555 100.492 31.1725C100.836 31.0111 101.226 30.9067 101.666 30.8734L101.777 30.8666L104.311 30.738C105.373 30.2676 106.432 29.774 107.494 29.2933C108.131 28.7663 108.843 28.3267 109.619 28.0002C110.498 27.6326 111.398 27.4244 112.3 27.355C113.033 27.1159 113.77 26.9051 114.521 26.7406C116.284 26.355 118.13 26.1391 119.96 26.1571C119.998 25.6833 120.016 25.2039 120.013 24.7188L120.009 24.4758C119.968 22.9206 121.209 21.6789 122.672 21.4579ZM120.896 145.892C120.644 145.946 120.389 145.99 120.135 146.02C120.212 146.211 120.289 146.401 120.364 146.591C120.569 146.707 120.777 146.817 120.986 146.92C120.924 146.57 120.888 146.218 120.896 145.892ZM107.69 141.967L107.519 142.282C107.491 142.333 107.464 142.384 107.437 142.434C107.799 142.406 108.164 142.414 108.524 142.455L108.523 142.417C108.477 142.401 108.431 142.386 108.386 142.365C108.138 142.246 107.907 142.112 107.69 141.967ZM114.827 127.609C117.101 127.742 119.028 128.09 121.096 129.085L121.274 129.172C123.101 130.08 126.124 131.756 125.869 134.159C125.798 134.843 125.301 135.563 124.52 135.509C122.379 135.362 121.155 133.203 119.706 131.856C118.243 130.499 116.446 129.103 114.675 128.17C114.425 128.038 114.524 127.622 114.796 127.609L114.827 127.609ZM104.514 95.9408C103.969 95.9588 104.152 96.4884 104.432 96.0462C104.455 96.0103 104.484 95.9743 104.514 95.9408ZM133.929 60.5883C128.768 60.724 123.574 63.7716 119.708 66.852C116.345 69.532 113.44 72.7196 110.869 76.1553C110.207 77.8664 109.639 79.6132 109.159 81.3728C108.843 82.5347 108.645 83.7095 108.38 84.8818L108.298 85.2412C108.09 85.6298 107.936 86.0481 107.823 86.4802C108.292 86.9501 108.9 87.2866 109.569 87.4463C109.785 87.4977 109.964 87.609 110.105 87.7566C110.644 86.8573 111.115 85.9082 111.389 84.9021L111.399 84.8555C112.435 83.1592 113.559 81.5155 114.765 79.9281C118.091 75.545 121.754 71.5502 126.157 68.2263C129.496 65.707 133.229 63.7328 137.197 62.45C136.226 61.6662 135.123 61.0461 133.929 60.5883Z" fill="black"/>
<path fill-rule="evenodd" clip-rule="evenodd" d="M182.467 153.534C180.723 154.22 178.662 154.382 176.861 153.798C175.139 153.239 173.576 151.995 172.63 150.431C171.787 149.037 171.435 147.384 171.933 145.735C171.957 145.657 172.034 145.606 172.109 145.586C172.516 145.957 172.768 146.326 173.019 146.692C173.443 147.311 173.868 147.922 174.452 148.451C175.3 149.219 176.444 149.844 177.578 150.05C178.69 150.252 179.827 150.073 180.822 149.541C181.427 149.218 181.916 148.786 182.4 148.352C182.928 147.879 183.447 147.399 184.173 147.132C184.755 146.918 185.367 147.099 185.837 147.457C186.342 147.841 186.705 148.443 186.685 149.073C186.653 150.048 186.227 150.862 185.607 151.533C184.77 152.441 183.586 153.094 182.467 153.534ZM180.396 129.228C182.337 130.408 185.295 133.16 183.206 136.085C180.749 138.664 177.21 135.707 175.466 134.37C173.849 133.333 172.032 135.999 173.532 137.209C186.134 146.54 191.247 129.537 181.378 127.841C180.291 127.654 179.887 128.863 180.396 129.228ZM159.98 112.879C162.626 112.753 164.957 113.941 167.478 114.481C169.808 114.98 172.103 114.68 174.369 114.045C178.046 113.015 179.566 118.644 175.939 119.742C173.298 120.541 170.517 120.596 167.806 120.184C165.399 119.818 163.38 118.646 161.085 117.964C159.114 117.378 156.797 117.621 154.716 117.897L153.909 118.006C152.708 118.167 151.502 118.33 150.313 118.564C149.282 118.768 148.252 119.141 147.2 119.184C147.08 119.189 146.979 119.034 147.054 118.931C148.277 117.252 150.633 115.927 152.508 115.044L152.635 114.984C154.949 113.905 157.404 113.002 159.98 112.879ZM159.011 125.258L159.011 125.201C159.014 123.561 159.969 119.818 162.328 119.818C163.803 119.818 164.698 122.366 164.853 124.992L164.858 125.099C164.926 126.731 164.478 130.3 162.328 130.3C160.156 130.3 159.033 126.92 159.011 125.258V125.258ZM193.751 125.258L193.752 125.201C193.748 123.561 192.794 119.818 190.434 119.818C188.997 119.818 188.11 122.24 187.923 124.795L187.91 124.992C187.817 126.569 188.236 130.3 190.434 130.3C192.607 130.3 193.729 126.92 193.751 125.258V125.258ZM193.715 110.883L193.884 110.886C196.642 110.982 199.478 112.616 200.214 115.36C200.252 115.502 200.077 115.598 199.973 115.5C197.705 113.377 194.656 115.406 192.385 116.469L191.551 116.855C188.624 118.217 185.295 119.818 182.045 118.803C180.502 118.321 179.522 116.735 179.962 115.133C180.354 113.707 182.074 112.509 183.564 113.024L183.632 113.048C184.842 113.511 186.331 113.042 187.581 112.58L188.608 112.194C190.26 111.567 191.919 110.866 193.715 110.883V110.883Z" fill="black"/>
<path fill-rule="evenodd" clip-rule="evenodd" d="M180.679 141.301C177.82 140.013 172.687 141.137 170.823 141.583C166.491 142.623 162.132 144.868 160.786 148.386C159.268 152.351 162.296 153.599 162.742 153.395C165.741 153.606 169.312 151.721 172.455 151.234C175.007 150.836 177.698 150.488 180.089 149.132C181.834 150.092 185.776 150.611 188.957 151.451C191.667 152.165 192.841 153.715 195.353 153.386C198.363 152.991 197.131 146.659 193.776 144.093C190.104 141.286 183.893 140.147 180.679 141.301ZM186.339 168.377C183.838 168.986 183.67 163.504 183.39 161.568C183.171 160.054 181.936 156.152 178.807 156.321C175.677 156.489 174.5 159.758 174.659 161.792C174.762 163.11 175.977 169.789 172.099 170.634C169.626 170.626 166.766 170.459 164.166 169.979C161.107 169.286 157.128 166.86 156.077 171.638C155.699 173.358 169.177 178.468 175.158 178.93C181.224 180.16 188.321 178.269 192.64 173.628C193.622 172.573 196.389 168.191 196.587 167.117C197.001 164.861 196.042 163.409 193.251 164.205C191.279 165.258 187.947 167.984 186.339 168.377Z" fill="black"/>
</svg>
