<svg width="292" height="395" viewBox="0 0 292 395" fill="none" xmlns="http://www.w3.org/2000/svg">
<path fill-rule="evenodd" clip-rule="evenodd" d="M207.416 220.302C205.184 219.506 203.032 218.586 201.072 217.234C195.422 213.028 191.737 206.698 188.256 200.7C183.352 191.977 179.858 182.682 177.444 172.985C176.406 168.819 176.053 163.989 173.696 160.295C168.351 152.561 152.68 153.563 144.358 154.921C138.785 155.907 137.634 162.144 136.368 166.759C135.314 170.594 134.624 174.472 134.045 178.402C132.667 179.308 131.112 180.044 129.629 180.685C113.472 185.64 110.632 194.826 104.461 209.015C94.0374 229.64 65.7538 237.715 61.4815 262.123C58.7288 278.238 66.5565 293.398 74.6269 306.794C82.1428 321.427 92.6355 328.45 109.346 324.993C125.019 321.477 140.081 315.595 155.479 311.049C162.936 309.216 170.382 304.446 178.227 306.109C194.391 309.74 210.999 311.447 227.564 310.975C250.822 311.916 250.819 289.591 248.431 272.302C246.759 245.397 233.19 228.121 207.416 220.302V220.302Z" fill="white"/>
<path fill-rule="evenodd" clip-rule="evenodd" d="M208.971 259.233C210.914 260.519 212.549 262.467 213.861 264.518C208.383 263.948 202.915 263.291 197.458 262.543C198.172 262.087 198.893 261.64 199.631 261.219C202.321 259.702 205.967 257.247 208.971 259.233ZM117.956 275.428C116.952 275.035 116.564 273.504 116.173 272.627C114.946 269.876 113.827 267.077 112.662 264.299C117.084 263.039 121.385 261.64 125.966 260.968C130.891 260.246 135.89 260.071 140.861 260.234C150.93 260.562 160.906 262.208 170.806 263.973C180.694 265.735 190.582 267.429 200.539 268.758C210.294 270.06 220.081 271.013 229.885 271.849C231.79 272.012 234.967 272.697 236.499 271.198C237.712 270.011 237.751 267.821 236.233 266.855C235.288 266.254 233.918 266.245 232.838 266.106C231.478 265.931 230.112 265.814 228.743 265.724C228.186 265.687 227.628 265.653 227.071 265.619C231.547 263.931 236.223 263.01 241.077 263.267C241.351 264.935 242.588 266.65 243.265 268.026C244.447 270.427 245.368 272.857 245.973 275.467C247.237 280.924 247.292 286.588 246.935 292.154C246.607 296.795 245.902 301.928 242.263 305.214C239.507 307.703 235.619 308.624 232.012 308.914C227.819 309.251 223.562 308.891 219.405 308.329C213.574 307.541 207.716 306.498 202 305.1C190.929 302.394 180.317 298.088 170.527 292.249C165.752 289.402 161.197 286.199 156.356 283.46C151.425 280.669 146.177 278.504 140.666 277.159C134.5 275.655 128.053 275.012 121.715 275.384C120.615 275.448 119.026 275.847 117.956 275.428ZM110.81 272.634C111.458 274.737 111.954 277.139 113.337 278.906C114.707 280.657 116.774 281.275 118.915 281.431C121.497 281.618 124.109 281.498 126.696 281.594C132.003 281.791 137.237 282.653 142.31 284.234C147.037 285.708 151.426 288.007 155.653 290.557C159.562 292.915 163.356 295.447 167.267 297.798C166.226 298.276 165.197 298.792 164.163 299.241C161.993 300.183 159.809 301.093 157.616 301.979C153.291 303.727 148.948 305.433 144.561 307.018C135.714 310.213 126.722 313.004 117.621 315.382C113.281 316.516 108.879 317.841 104.369 318.03C100.371 318.197 96.6671 317.066 93.4422 314.689C86.7535 309.757 81.4319 302.639 77.1301 295.618C74.5743 291.446 72.3439 287.063 70.4992 282.531C69.5661 280.24 68.7199 277.913 67.9583 275.558C67.601 274.453 67.2622 273.341 66.9414 272.225C66.8003 271.734 66.6651 271.241 66.5312 270.748C73.3708 268.661 80.2917 266.776 87.375 265.73C91.1569 265.172 94.9891 264.889 98.8124 264.93C100.71 264.95 102.607 265.053 104.495 265.249C105.511 265.354 106.523 265.49 107.53 265.658C107.947 265.727 108.375 265.83 108.804 265.905C109.46 268.152 110.121 270.397 110.81 272.634ZM252.194 263.7C252.562 262.954 252.718 262.221 252.85 261.409C252.951 260.79 253.218 259.918 252.984 259.114C252.722 258.213 252.008 257.408 251.495 256.64C250.928 255.791 250.363 254.942 249.798 254.092C248.668 252.392 247.54 250.691 246.414 248.989C241.816 242.037 237.25 235.066 232.676 228.099C228.618 221.916 224.627 215.678 220.445 209.578C216.869 204.362 212.971 199.232 208.076 195.176C201.886 190.047 194.516 187.631 186.818 185.745C185.977 184.873 184.854 184.396 183.654 184.493C181.958 182.569 180.61 181.225 179.999 178.779C179.706 177.607 179.798 174.315 178.657 173.622C177.302 172.798 176.594 173.888 176.22 175.117C174.97 179.227 176.405 184.754 179.708 188.871C178.316 193.681 176.471 200.517 173.18 204.371C169.655 208.497 164.781 209.781 159.522 209.866C149.493 210.027 139.474 206.3 131.824 199.839C129.499 197.875 127.339 195.682 125.386 193.35C123.92 191.6 122.187 188.9 121.04 186.858C121.04 186.063 120.101 185.231 129.662 184.589C139.222 183.946 139.947 170.854 140.159 169.072C140.332 167.626 141.067 165.38 140.047 164.2C139.615 163.699 138.727 163.618 138.178 163.959C137.144 164.601 136.804 166.244 136.479 167.359C136.024 168.922 134.535 178.62 131.713 179.743C130.392 180.269 128.877 180.279 127.48 180.376C125.754 180.497 124.025 180.585 122.307 180.785C121.673 180.86 120.981 181.065 120.356 181.071C119.949 181.074 119.529 180.877 119.136 180.738C117.809 180.269 116.482 180.621 115.115 180.805C103.025 182.429 90.5757 186.138 80.2632 192.811C71.1736 198.693 64.7699 207.152 60.5444 217.042C56.233 227.135 53.7618 238.049 51.6908 248.794C50.9971 252.394 50.3912 256.01 49.8707 259.639C49.3677 263.146 48.7385 266.731 48.5878 270.273C48.5282 271.675 48.8631 272.977 49.3785 274.257C49.9589 275.698 51.3307 276.266 52.6465 276.939C55.5349 278.416 58.5819 279.562 61.7212 280.374C63.6389 283.863 65.2529 287.489 66.55 291.251C66.0688 292.205 66.0587 293.629 65.9662 294.555C65.7367 296.863 65.6385 299.183 65.6179 301.501C65.5765 306.148 65.8559 310.79 66.0749 315.429C66.297 320.134 67.0352 338.7 67.1555 340.967C67.2491 342.728 67.1232 345.191 68.0508 346.755C69.4764 349.158 72.9948 349.077 74.6244 347.129C115.115 355.834 191.225 353.212 221.879 348.832C225.867 348.262 224.615 348.894 225.629 347.886C226.39 347.13 227.038 345.834 227.248 344.792C227.529 343.402 227.075 342.144 226.28 341.019C225.443 339.837 225.291 337.921 224.98 336.515C224.245 333.191 223.88 318.592 223.536 316.974C223.429 316.47 223.326 315.937 223.201 315.404C228.824 315.937 234.682 315.937 240.032 314.056C243.065 312.99 245.894 311.314 248.072 308.922C250.708 306.026 252.175 302.38 252.93 298.574C253.903 293.666 254.11 288.583 253.919 283.594C253.653 277.697 252.675 271.718 250.248 266.305C251.047 265.563 251.716 264.668 252.194 263.7Z" fill="black"/>
<path fill-rule="evenodd" clip-rule="evenodd" d="M192.118 59.3887C178.375 55.3545 131.109 59.4897 129.94 60.3635C128.027 61.953 118.724 66.9963 117.276 68.1477C104.186 82.0227 116.665 102.627 115.705 119.366C115.766 125.303 113.236 130.724 112.073 136.436C111.582 139.429 111.69 142.525 113.25 145.213C115.993 150.015 121.785 150.988 126.495 152.924C128.839 153.934 131.029 155.365 133.037 156.93C146.553 168.889 154.077 177.077 173.799 174.38C173.9 175.321 174.734 176.246 175.768 175.826C178.189 174.839 180.593 173.793 183.036 172.859C183.558 174.117 185.057 174.476 186.073 173.365L186.079 173.373C190.6 169.705 193.476 164.69 195.611 159.321C197.105 156.224 198.329 152.992 199.264 149.664C199.37 149.287 199.356 148.951 199.26 148.661C203.575 133.791 205.172 118.119 204.036 102.681C203.806 99.4952 203.205 96.2677 203.352 93.069C203.486 90.1791 204.731 87.4454 205.68 84.7539C210.573 73.3121 203.093 62.9913 192.118 59.3887Z" fill="white"/>
<path fill-rule="evenodd" clip-rule="evenodd" d="M193.847 40.8111L193.994 40.6975C195.578 39.4542 197.072 37.8248 199.307 38.4358C201.139 38.9371 202.065 40.4538 202.458 42.2867C203.016 41.7032 203.558 41.099 204.088 40.4744C205.527 38.7777 208.743 39.6569 209.172 41.8188C210.041 46.1736 210.084 50.6054 209.239 54.9679C209.11 55.6286 208.958 56.2866 208.781 56.937C209.745 55.7365 210.642 54.4846 211.447 53.1658C212.318 51.734 214.287 52.4435 214.423 53.973C214.459 54.3689 214.48 54.7699 214.485 55.1735C215.099 55.3895 215.523 56.0219 215.361 56.7982C214.467 61.0707 213.333 65.284 211.971 69.4254C214.161 68.2635 216.616 67.5745 218.927 68.3946C222.597 69.7005 223.471 73.7056 222.754 77.1529C221.852 81.4871 219.014 85.1143 215.354 87.4922C214.919 88.1451 214.49 88.8032 214.081 89.4742C214.074 91.3688 213.729 93.2582 213.035 95.014C212.254 96.9857 210.876 98.6901 209.18 99.9857C208.583 101.284 207.004 102.233 205.618 101.97L205.545 101.955L205.542 101.957C205.897 103.227 206.203 104.51 206.468 105.795C208.518 115.754 207.48 126.12 205.61 136.022L205.55 136.338C203.872 145.15 201.918 154.276 198.122 162.458C194.688 169.857 188.865 176.363 180.545 177.978C170.757 179.877 159.923 176.867 151.504 171.847C148.453 170.027 151.25 165.23 154.288 167.081C158.673 169.749 163.436 171.613 168.474 172.595C173.183 173.51 178.45 173.821 182.966 171.924C189.256 169.281 192.994 162.826 195.358 156.749C196.752 153.163 197.795 149.461 198.767 145.744C200.019 140.965 201.186 136.155 202.062 131.291C203.694 122.22 204.224 112.798 202.496 103.7C201.946 100.798 201.168 97.8777 200.152 95.0706C199.993 94.8726 199.841 94.6515 199.705 94.4099C198.643 92.5487 197.911 90.433 197.122 88.4202C196.43 87.2197 195.675 86.0654 194.873 84.9369C193.673 84.0153 192.531 83.03 191.485 81.9549C194.524 79.9873 197.205 77.5241 199.134 74.3863C199.452 73.8688 199.25 73.3742 198.873 73.0953C197.333 75.0226 195.339 76.6547 193.241 78.1007C192.167 79.021 191.009 79.8477 189.797 80.5948C188.93 80.7662 188.054 80.884 187.205 80.9806C184.786 81.2557 182.355 81.1529 179.949 80.8315C174.746 80.1375 152.744 74.0773 143.469 76.4331C141.537 76.9238 140.626 78.6567 139.603 80.284C138.716 81.6994 137.587 82.871 136.233 83.8357L136.082 83.9421C133.434 85.775 128.111 91.5734 125.874 96.7487C122.985 103.43 120.21 123.453 121.487 123.626C124.829 124.078 126.679 125.837 129.401 127.723C129.581 127.847 129.476 128.181 129.245 128.096C127.448 127.448 125.505 127.065 123.62 126.752C121.916 126.466 120.122 126.415 118.477 127.024C115.953 127.96 114.722 130.076 114.215 132.461C114.017 133.394 113.93 134.369 113.92 135.333L113.918 135.612C113.92 138.652 114.486 142.021 116.693 144.263C117.631 145.217 118.904 145.86 120.235 146.037C121.693 146.232 122.592 145.574 123.931 145.232C125.474 144.839 126.677 145.854 126.533 147.178C126.859 147.464 127.175 147.764 127.489 148.07L127.489 148.072L127.492 148.073C127.697 148.165 127.892 148.289 128.07 148.438C128.36 148.685 128.605 148.955 128.8 149.245C129.234 149.33 129.651 149.572 129.993 150.014C130.697 150.921 131.347 151.839 131.951 152.775C133.033 153.924 134.11 155.075 135.172 156.245C136.45 157.651 137.694 159.089 138.946 160.518L139.572 161.232C140.249 162.001 140.922 162.77 141.595 163.541L141.796 163.767C142.474 164.526 142.993 165.086 143.066 166.178C143.117 166.988 142.246 167.538 141.523 167.353C140.41 167.066 139.893 166.192 139.226 165.324L138.218 164.031V164.031L137.269 162.813C136.799 162.207 136.323 161.602 135.851 160.998C135.709 162.111 134.532 163.009 133.457 163.057L133.207 163.067C130.684 163.151 127.618 162.795 125.697 161.016C124.834 161.888 123.759 162.574 122.435 162.985C119.428 163.921 116.354 162.263 115.138 159.741C112.781 160.752 110.118 160.955 107.571 160.212C106.101 159.781 105.593 157.95 106.617 156.829L106.663 156.78L106.675 156.766C106.464 156.492 106.348 156.155 106.329 155.789C106.306 155.344 106.63 154.873 106.563 154.458C106.308 152.874 103.727 154.047 102.906 154.39C102.749 154.456 102.602 154.487 102.465 154.492C101.197 154.861 99.8171 153.194 100.482 151.818C101.97 148.744 103.422 145.646 104.928 142.577C104.738 142.641 104.543 142.7 104.35 142.749C101.643 143.443 98.3609 142.112 98.9855 138.849C99.1295 138.083 99.8235 137.559 100.512 137.322C101.854 136.86 102.862 137.194 103.895 136.762C105.059 136.279 106.275 135.392 107.298 134.556C108.391 133.667 109.334 132.667 110.169 131.582C110.504 130.006 111.082 128.5 112.007 127.204C112.064 127.127 112.12 127.05 112.18 126.975C106.245 125.56 107.022 119.724 104.405 114.551L104.184 114.122C102.406 110.662 100.855 106.761 101.751 102.821C101.911 102.125 102.142 101.459 102.44 100.837C101.965 100.896 101.487 100.95 101.011 101.004C99.9186 101.127 98.8082 99.7184 99.2426 98.6824C99.4713 98.14 99.7232 97.6155 99.9957 97.1065C100.751 95.7029 101.679 94.4279 102.772 93.2762C100.936 93.2274 99.0986 93.2274 97.2839 93.0166C95.5694 92.8186 93.7676 91.8803 93.8204 89.9035C93.8735 88.0187 95.527 86.5919 97.0603 85.6724C98.5694 83.6649 100.484 81.9966 102.649 80.7567C102.22 80.6604 101.786 80.5891 101.345 80.5452L101.124 80.5256C99.8877 80.4279 98.7773 80.0886 97.6566 79.5719C96.6542 79.1092 96.6696 77.7056 97.325 76.9986C99.4441 74.7077 102.619 75.4537 105.09 76.7665C104.918 76.5482 104.729 76.338 104.524 76.1368L104.399 76.0172C103.185 74.8868 105.006 73.073 106.216 74.1994C106.598 74.5555 106.941 74.9424 107.246 75.3524L107.275 75.2917V75.2917C108.873 72.0497 111.211 69.1477 113.976 66.8224L114.626 66.2819C119.614 62.1157 121.152 60.1411 127.785 60.7545C127.502 59.5496 127.529 58.1942 127.593 57.0798L127.602 56.9293C127.857 52.7391 129.401 47.7237 133.488 45.842C134.55 45.3561 135.753 46.1504 135.47 47.3664C135.272 48.2276 135.031 49.0656 134.73 49.8805C135.622 48.9422 136.578 48.0656 137.591 47.2584C141.719 43.9679 147.235 41.1376 152.661 42.0631C155.643 42.5746 157.982 44.4461 160.478 46.0091C162.986 47.5823 165.788 48.5155 168.726 48.8522C172.831 49.3252 176.952 48.8497 181.01 48.099C183.799 46.8831 186.506 45.4589 189.148 43.9242C190.773 42.9808 192.354 41.9499 193.847 40.8111ZM120.965 131.821C121.834 131.597 122.808 131.6 123.68 131.818C125.929 132.384 128.021 134.266 128.152 136.638C128.211 137.71 127.348 138.736 126.345 139.011C125.209 139.325 124.232 138.77 123.569 137.88C122.857 136.929 122.68 135.898 121.808 135.034L121.608 134.839C120.867 134.13 119.747 133.215 118.719 133.379C118.567 133.402 118.454 133.196 118.608 133.114C119.446 132.656 119.996 132.068 120.965 131.821ZM132.648 120.646C133.044 120.322 133.569 120.702 133.382 121.168L133.368 121.202C132.897 122.194 133.45 123.358 134.02 124.189C134.511 124.906 133.583 125.587 132.931 125.279C131.095 124.407 131.19 121.829 132.648 120.646ZM139.357 90.834C139.323 90.5923 139.644 90.4921 139.727 90.7311C141.097 94.708 141.49 98.2298 141.266 102.435L141.245 102.809C141.003 106.86 140.294 111.147 137.843 114.474C137.275 115.243 136.113 114.79 136.3 113.824C137.054 109.955 138.501 106.281 139.064 102.366C139.652 98.2735 139.917 94.9291 139.357 90.834ZM126.561 105.289C126.762 104.227 128.394 103.135 129.219 104.202C129.497 104.564 129.17 105.009 128.836 105.142C128.522 105.266 128.242 105.096 127.934 105.158C127.684 105.208 127.502 105.364 127.38 105.577L127.355 105.623C127.114 106.086 126.476 105.741 126.561 105.289ZM125.893 96.8314C126.479 95.7466 127.828 95.0551 128.982 95.7312C129.363 95.9548 129.214 96.6052 128.751 96.5846L128.477 96.5735C127.654 96.5436 126.831 96.5602 126.14 97.0808C125.985 97.1965 125.816 96.978 125.893 96.8314ZM127.953 67.2049C124.666 65.7267 121.397 67.0612 118.712 69.1424C118.49 69.3146 118.383 69.5156 118.359 69.7177C120.151 69.0198 122.059 68.5622 123.883 68.1845C125.375 67.8756 126.88 67.6671 128.387 67.5848C128.303 67.4334 128.164 67.2997 127.953 67.2049Z" fill="black"/>
<path fill-rule="evenodd" clip-rule="evenodd" d="M174.168 156.022C172.441 155.317 170.899 154.141 169.772 152.638C169.38 152.116 169.278 151.565 169.36 151.06C169.453 150.493 169.788 149.979 170.246 149.634C170.705 149.289 171.279 149.118 171.834 149.205C172.316 149.281 172.796 149.545 173.176 150.092L173.256 150.202C173.926 151.109 174.799 151.852 175.794 152.332C176.753 152.794 177.825 153.01 178.935 152.884C181.049 152.646 182.506 151.502 184.055 149.95C184.247 149.754 184.439 149.551 184.632 149.346C184.754 149.16 184.923 149.04 185.111 148.977C185.319 148.908 185.555 148.912 185.771 148.987C185.98 149.06 186.166 149.198 186.291 149.381C186.41 149.555 186.477 149.771 186.455 150.018C186.313 151.627 185.472 153.063 184.277 154.191C182.95 155.443 181.191 156.31 179.535 156.613C177.711 156.948 175.852 156.708 174.168 156.022V156.022ZM180.396 131.199C182.337 132.379 185.295 135.131 183.206 138.056C180.749 140.635 177.21 137.678 175.466 136.34C173.849 135.304 172.032 137.97 173.532 139.18C186.134 148.51 191.247 131.508 181.378 129.812C180.291 129.625 179.887 130.834 180.396 131.199ZM157.815 120.346C158.029 117.683 162.083 117.079 162.487 119.713C162.848 122.073 162.423 124.241 161.36 126.366C160.344 128.395 157.792 127.448 157.599 125.6C157.34 123.122 157.681 122.002 157.815 120.346ZM188.676 119.167C189.241 118.427 190.057 117.921 191.035 118.207C194.09 119.1 193.19 123.437 192.117 125.548C191.534 126.695 189.649 126.986 188.798 125.976C187.41 124.33 186.745 121.042 188.51 119.421C188.558 119.337 188.611 119.252 188.676 119.167ZM161.317 108.696L161.799 108.612C163.292 108.354 165.148 108.105 166.204 109.306C166.764 109.942 166.957 111.125 166.204 111.735C164.88 112.807 163.416 112.391 161.829 112.482C160.521 112.557 159.264 112.773 158.004 113.134C155.241 113.924 152.989 115.366 150.628 116.949C150.319 117.157 150.002 116.761 150.15 116.471C151.513 113.802 154.153 111.609 156.798 110.273C158.21 109.56 159.755 108.968 161.317 108.696ZM185.891 107.501L186.261 107.576C190.28 108.416 195.502 110.095 197.406 114.043C197.478 114.602 197.401 114.721 197.339 114.8L197.318 114.826C197.267 114.892 197.226 114.984 196.984 115.06C196.917 115.044 196.849 115.027 196.781 115.009C195.908 114.781 195.218 114.466 194.55 114.139L193.825 113.782C192.984 113.37 192.136 112.972 191.237 112.679C189.319 112.053 187.346 111.613 185.343 111.377C184.909 111.326 184.491 111.18 184.161 110.929C183.847 110.69 183.608 110.36 183.499 109.921C183.358 109.353 183.398 108.923 183.703 108.411C183.932 108.026 184.26 107.76 184.636 107.607C185.02 107.45 185.457 107.414 185.891 107.501Z" fill="black"/>
<path fill-rule="evenodd" clip-rule="evenodd" d="M193.689 142.735C191.362 141.647 188.862 140.999 186.293 140.77C185.182 140.67 183 140.356 181.818 141.081C181.266 141.42 180.799 141.894 180.428 142.473C180.284 142.273 180.093 142.103 179.973 141.887C179.326 140.725 175.355 140.701 174.157 140.799C171.314 141.033 168.547 141.701 165.941 142.823C161.262 144.839 157.332 149.026 158.568 154.342C158.743 155.095 159.586 155.388 160.281 155.258C164.964 154.38 169.647 153.502 174.33 152.624C175.417 152.42 176.505 152.217 177.592 152.013C178.575 151.828 179.78 151.77 180.713 151.346C181.088 151.506 181.506 151.608 181.952 151.697C187.587 152.816 193.229 153.902 198.867 155.004C199.543 155.137 200.43 154.794 200.551 154.045C201.36 149.046 198.177 144.833 193.689 142.735" fill="black"/>
</svg>
