<svg width="512" height="691" viewBox="0 0 512 691" fill="none" xmlns="http://www.w3.org/2000/svg">
<path fill-rule="evenodd" clip-rule="evenodd" d="M87.8874 446.151L410.804 471.789L411.143 473.983C416.554 509.228 419.287 533.138 419.342 545.715L419.343 546.101C419.343 558.571 423.171 578.405 430.827 605.602L431.3 607.276L87.4367 607.875L83.3804 526.014L87.8874 446.151ZM279.062 270.491C292.193 271.139 305.425 276.769 306.447 280.367C308.724 288.38 312.384 322.68 324.422 327.95C336.46 333.22 362.16 328.415 369.508 341C376.856 353.585 400.987 404.886 400.987 416.84C400.987 424.809 322.347 427.575 165.068 425.138C167.075 360.951 175.446 327.209 190.18 323.914L191.495 323.624C212.802 318.969 225.537 318.819 232.805 311.315C240.222 303.658 241.568 290.515 244.645 280.367C246.341 274.775 262.95 269.696 279.062 270.491Z" fill="white"/>
<path fill-rule="evenodd" clip-rule="evenodd" d="M307.856 290.552C307.906 290.514 307.956 290.503 308.01 290.53C309.033 291.021 309.244 292.004 309.596 293.027C310.11 294.523 310.705 295.984 311.255 297.467C312.35 300.442 313.395 303.412 314.617 306.337C315.87 309.348 317.168 312.305 318.655 315.213C319.372 316.619 320.143 317.998 320.927 319.369C321.468 320.32 321.972 321.627 322.684 322.519C322.739 322.235 322.815 321.965 322.905 321.713C322.811 321.758 322.721 321.807 322.635 321.861C322.455 321.974 322.238 321.749 322.346 321.573C322.734 320.933 323.239 320.5 323.816 320.207C325.411 318.436 360.579 326.889 370.193 336.384C387.605 353.581 399.358 374.842 407.088 397.461C411.356 409.942 415.286 422.545 419.347 435.094C423.638 448.364 428.118 461.576 432.417 474.837C433.359 477.753 431.304 480.404 428.708 481.364C423.872 483.149 419 484.83 414.087 486.385C416.472 495.54 418.139 504.888 419.338 514.264C421.812 533.597 422.123 553.321 426.022 572.451C426.918 576.842 428.05 581.17 429.247 585.487L429.524 586.483C430.236 589.016 430.885 591.572 431.759 594.051C432.512 596.183 433.486 598.333 434.013 600.533C434.63 603.12 433.72 605.947 431.3 607.276C429.357 608.345 426.576 607.903 425.404 605.897C425.166 605.487 425.021 605.041 424.963 604.59C424.787 604.216 424.625 603.833 424.481 603.44C424.424 603.289 424.375 603.133 424.327 602.976L424.188 602.507C423.845 601.389 423.53 600.263 423.214 599.136C422.7 597.328 422.183 595.526 421.612 593.734L421.321 592.839C419.906 588.53 418.639 584.184 417.535 579.785C413.583 564.01 412.745 547.678 411.66 531.512L411.604 530.676C410.621 516.189 410.035 501.733 411.239 487.278L411.074 487.331V487.331L410.91 487.381C409.346 487.859 407.777 488.328 406.204 488.783C406.155 488.801 406.11 488.819 406.06 488.833C405.054 489.144 404.019 489.441 402.966 489.716L402.333 489.878L401.887 490L401.417 490.134C399.927 490.566 398.407 491.063 396.861 491.014C394.301 491.424 391.696 491.672 389.136 491.681C389.925 504.577 390.835 517.464 391.922 530.338C393.012 543.279 394.459 556.17 395.96 569.062C396.699 575.431 397.492 581.786 398.367 588.133C398.808 591.351 399.268 594.552 399.854 597.743C400.458 601.006 401.526 604.495 400.882 607.795C400.868 607.79 400.855 607.786 400.841 607.786C400.625 608.741 400.048 609.598 399.043 610.188C397.199 611.265 394.621 610.634 393.562 608.75C393.472 608.592 393.386 608.43 393.305 608.263C392.22 608.728 391.029 608.908 389.569 608.921L369.765 609.12V609.12C360.764 609.21 351.764 609.305 342.759 609.435C314.487 609.852 286.215 610.333 257.942 610.675L247.34 610.797C231.439 610.963 215.53 611.292 199.629 611.288C191.674 611.288 183.728 611.261 175.773 611.067C171.919 610.972 168.075 610.824 164.226 610.666L163.546 610.635C160.474 610.483 157.211 610.199 154.207 610.887C153.377 612.5 151.259 612.834 150.15 611.184C147.617 607.409 146.925 602.143 146.457 597.529L146.292 595.868C145.774 590.698 145.319 585.528 144.981 580.348C143.782 561.998 143.345 543.63 143.895 525.244C144.174 515.873 145.035 506.556 146.054 497.239C146.374 494.332 146.707 491.429 147.068 488.531L147.074 487.5C147.074 487.171 147.072 486.856 147.063 486.561L146.973 483.764C146.899 481.433 146.829 479.101 146.8 476.768L146.788 475.369L146.775 472.763C144.548 472.552 142.173 471.812 140.253 471.456C137.139 470.875 134.033 470.248 130.937 469.586C124.735 468.251 118.601 466.674 112.508 464.929L111.212 464.557C105.589 462.937 99.8888 461.209 94.5696 458.786C92.4873 457.835 90.4096 456.762 88.5842 455.355C88.4761 456.834 88.3093 458.308 88.2101 459.773C88.0123 462.671 87.7775 465.56 87.5837 468.459L87.3983 471.216C87.0939 475.811 86.8197 480.401 86.6958 485.01C86.1459 505.114 86.0513 525.303 87.1149 545.393C87.6422 555.449 88.3949 565.505 89.4811 575.521C90.013 580.448 90.5763 585.388 91.2704 590.297C91.987 595.34 93.2806 600.353 93.6772 605.433C94.0558 610.332 86.5651 611.045 85.3346 606.564C83.8613 601.192 83.486 595.396 82.7094 589.872L82.6214 589.26C81.7606 583.391 81.071 577.5 80.4761 571.599C78.4221 551.248 77.889 530.793 78.9662 510.365C79.4783 500.581 80.6926 490.835 82.1623 481.155L82.333 480.039C83.002 475.703 83.6283 471.368 84.386 467.052L84.6766 465.434C85.3572 461.725 85.88 457.69 86.9842 453.981L86.656 453.678C86.0423 453.106 85.3773 452.445 84.893 451.731C83.2253 451.506 81.8056 450.307 81.9814 448.13C82.5538 440.977 85.1679 433.701 87.498 426.949C89.8372 420.161 92.5504 413.499 95.6242 407.008C106.437 384.196 122.008 363.484 141.051 346.891C151.151 338.088 162.22 330.281 174.452 324.724C180.483 321.978 186.721 319.855 193.256 318.711C196.492 318.143 199.759 317.701 203.05 317.606C205.719 316.03 208.888 316.693 211.473 318.421L211.613 318.517H211.618L212.28 318.647V318.647C212.442 318.679 212.438 318.936 212.28 318.972C212.271 318.972 212.257 318.976 212.248 318.981C212.672 319.315 213.073 319.671 213.447 320.054C214.682 321.316 214.678 322.839 214.042 324.07C217.824 327.577 220.212 332.08 222.714 336.619C225.395 341.478 228.906 345.679 233.179 349.222C248.841 362.212 271.877 367.96 291.5 361.825C305.932 357.317 318.259 345.115 321.666 330.426C320.859 330.714 319.985 330.759 319.155 330.462C315.261 329.073 313.776 324.817 312.287 321.258L312.215 321.086C310.759 317.638 309.537 314.135 308.573 310.52C307.6 306.869 307.027 303.015 306.788 299.247C306.696 297.757 306.737 296.267 306.814 294.777L306.882 293.545C306.935 292.429 306.918 291.288 307.856 290.552ZM244.492 280.505C244.546 280.37 244.758 280.298 244.839 280.46C248.287 287.573 246.024 297.318 242.765 304.102C239.354 311.197 234.216 316.579 228.127 321.235C227.289 321.875 226.427 322.506 225.553 323.123C220.474 326.711 215.948 317.038 221.813 315.19C227.924 312.085 232.891 306.549 236.343 300.735C238.209 297.593 239.863 294.32 241.13 290.886C242.392 287.46 243.149 283.895 244.492 280.505Z" fill="black"/>
<path fill-rule="evenodd" clip-rule="evenodd" d="M276.751 115.059C302.343 115.059 328.812 134.897 338.193 147.556C346.08 158.2 350.326 206.329 350.326 238.855C350.326 245.658 354.08 258.481 352.985 264.988C348.971 288.832 331.482 308.83 296.869 308.83C262.255 308.83 237.438 295.108 211.711 258.268C199.228 258.268 193.178 248.694 193.09 233.585C193.002 218.477 205.139 212.98 205.139 212.98C205.139 212.98 200.812 153.355 211.711 137.831C222.61 122.308 251.16 115.059 276.751 115.059Z" fill="white"/>
<path fill-rule="evenodd" clip-rule="evenodd" d="M265.982 106.628C282.139 104.992 297.972 106.366 313.896 109.211C315.113 109.431 315.802 110.23 316.059 111.189C323.559 111.532 331.068 112.082 338.558 112.493C341.276 112.641 342.817 115.327 341.578 117.753C341.33 118.235 341.073 118.703 340.811 119.172L341.14 119.064C343.393 118.341 345.827 117.985 348.023 119.132C350.817 120.592 351.913 123.815 351.295 126.781C351.137 127.538 350.872 128.264 350.57 128.972C351.183 128.931 351.8 128.945 352.413 129.026C355.676 129.459 358.101 131.96 358.272 135.291C358.525 140.321 355.284 145.424 351.467 149.025C352.02 150.166 352.233 151.509 352.002 152.871C351.543 155.562 349.561 157.173 347.263 158.224C348.221 161.267 348.674 164.449 348.407 167.7C348.317 168.785 347.368 169.682 346.366 169.902C350.101 180.185 351.991 191.226 353.351 201.984C354.32 209.638 354.797 217.337 354.855 225.049C354.884 228.531 354.826 232.016 354.68 235.499L354.622 236.804C354.441 240.569 354.432 244.521 353.756 248.245C356.064 252.171 356.992 257.044 357.384 261.442C357.871 266.887 357.1 272.504 355.383 277.683C348.902 297.255 329.341 309.605 309.695 312.815C291.509 315.785 270.466 311.787 259.838 295.267C259.672 295.005 260.028 294.789 260.235 294.961C267.838 301.145 276.658 303.903 286.241 305.246C302.809 307.564 321.431 303.633 334.727 293.212C341.109 288.208 345.711 280.924 347.735 273.085C348.767 269.079 349.123 264.9 348.717 260.776C348.302 256.593 346.45 253.023 345.283 249.07C344.891 247.735 345.305 246.496 346.121 245.613C346.351 242.403 346.892 239.166 347.099 235.966C347.329 232.328 347.469 228.691 347.518 225.049C347.613 217.494 347.298 209.926 346.662 202.404C345.499 188.628 342.412 175.187 340.6 161.529C339.929 162.131 338.968 162.378 337.96 161.852L337.855 161.795L337.305 161.48C337.274 161.48 337.238 161.485 337.206 161.489C333.443 161.854 329.54 161.331 325.934 160.208C322.161 159.037 318.66 157.234 315.531 154.831C314.937 157.847 314.689 160.894 314.685 163.968C314.68 165.888 312.647 166.885 311.034 166.064C303.881 162.431 297.049 158.244 290.563 153.538C289.805 157.419 289.049 161.299 288.286 165.185C287.994 166.682 286.087 167.286 284.866 166.574C280.007 163.747 275.811 160.047 272.395 155.647C271.713 156.951 271.029 158.256 270.34 159.557L269.303 161.507C268.28 163.422 266.91 165.541 264.67 166.154C262.299 166.803 260.32 165.266 259.523 163.12C259.28 162.454 259.054 161.768 258.847 161.078C256.827 165.69 254.547 170.198 251.969 174.498C248.102 180.947 243.459 186.695 238.831 192.59C237.425 194.38 235.018 192.671 234.824 190.932C234.712 189.909 234.617 188.881 234.535 187.857C231.838 193.301 229.024 198.693 225.958 203.929L226.397 205.649V205.649C227.662 210.733 228.713 215.853 229.855 220.963C230.224 222.612 229.347 224.97 227.421 225.25C225.12 225.586 222.942 226.762 220.585 225.953C218.015 225.07 217.507 222.848 216.294 220.742C216.052 220.323 215.77 219.937 215.467 219.571L215.39 219.671V219.671C215.201 219.92 214.75 219.649 214.863 219.365L214.995 219.037V219.037C213.952 217.931 212.705 217.007 211.558 216.014C208.832 215.555 205.766 216.058 203.888 217.166C199.61 219.689 197.646 224.891 197.605 229.674C197.556 235.272 199.29 241.565 202.22 246.352C203.509 248.457 205.276 250.358 207.61 251.292C209.927 252.22 212.438 251.932 214.795 252.806C216.354 253.388 217.314 255.119 216.372 256.687C216.309 256.796 216.237 256.894 216.169 256.998L216.87 257.929C217.353 258.574 217.855 259.264 218.324 259.982C219.523 261.362 220.785 262.691 222.006 264.048C224.264 266.549 226.455 269.119 228.676 271.656C230.772 274.05 232.99 276.299 235.275 278.512C237.434 280.609 240.129 282.371 242.112 284.607C244.041 286.789 244.564 290.597 241.391 291.86C237.88 293.26 234.772 289.978 232.409 287.79L232.309 287.699C227.977 283.712 224.065 279.156 220.958 274.139C217.881 276.234 213.43 276.434 210.365 274.34C208.753 273.238 207.516 271.386 206.914 269.371C206.347 269.498 205.781 269.572 205.228 269.564C204.944 269.729 204.659 269.889 204.37 270.039C202.085 271.228 199.277 270.697 198.232 268.168C197.279 265.872 198.261 263.264 199.118 261.052L199.295 260.595C199.782 259.333 200.318 257.959 200.985 256.665C199.129 255.268 197.542 253.532 196.199 251.558C191.687 244.909 189.434 235.186 190.43 227.253C191.029 222.467 193.278 217.508 196.96 214.28L196.825 213.929V213.929C195.793 211.31 194.855 208.682 194.247 205.915C193.535 202.679 193.188 199.325 192.873 196.03C192.206 189.07 192.386 181.953 193.274 175.021C194.941 161.971 199.169 149.161 206.673 138.302C204.546 135.755 202.86 132.758 203.739 129.31C204.14 127.727 205.055 126.227 206.434 125.32C207.196 124.821 208.102 124.744 208.864 124.329L209.093 124.203C209.427 124.008 209.171 124.029 208.972 123.121C208.183 119.497 208.837 115.995 212.825 114.791C216.58 113.66 220.131 116.062 222.353 118.925C228.167 114.8 235.829 112.641 242.567 110.807C250.229 108.728 258.089 107.431 265.982 106.628ZM203.181 228.195C203.153 225.243 205.952 223.422 208.706 223.905C210.556 224.226 212.098 225.33 213.547 226.471L214.253 227.03C216.017 228.415 218.043 229.908 219.094 231.869C220.636 234.763 217.378 238.657 214.335 236.629C212.249 235.23 210.911 232.989 209.542 230.907L209.4 230.692C208.778 229.759 208.233 228.768 207.381 228.019L207.197 227.858C206.916 227.619 206.616 227.402 206.254 227.298C205.556 227.098 204.263 227.379 203.956 228.209L203.928 228.294C203.816 228.714 203.185 228.623 203.181 228.195Z" fill="black"/>
<path fill-rule="evenodd" clip-rule="evenodd" d="M305.391 273.572C302.361 272.336 299.658 270.274 297.681 267.64C296.994 266.724 296.816 265.758 296.96 264.873C297.122 263.879 297.711 262.977 298.513 262.373C299.318 261.766 300.324 261.467 301.297 261.62C302.143 261.752 302.985 262.215 303.651 263.176L303.79 263.368C304.965 264.958 306.496 266.262 308.241 267.103C309.923 267.913 311.803 268.291 313.749 268.071C317.456 267.653 320.01 265.648 322.726 262.925C323.062 262.582 323.399 262.227 323.738 261.867C323.951 261.541 324.248 261.331 324.577 261.221C324.943 261.098 325.357 261.105 325.735 261.238C326.101 261.365 326.427 261.607 326.646 261.928C326.855 262.234 326.973 262.612 326.934 263.046C326.686 265.867 325.211 268.385 323.116 270.362C320.789 272.558 317.705 274.077 314.801 274.61C311.602 275.197 308.342 274.776 305.391 273.572V273.572ZM316.31 230.048C319.714 232.117 324.9 236.941 321.238 242.071C316.929 246.593 310.723 241.408 307.666 239.063C304.83 237.245 301.645 241.92 304.275 244.042C326.371 260.402 335.337 230.589 318.032 227.615C316.126 227.288 315.419 229.408 316.31 230.048ZM276.715 211.017C277.092 206.349 284.2 205.289 284.907 209.908C285.541 214.046 284.795 217.847 282.932 221.573C281.151 225.132 276.675 223.471 276.337 220.23C275.883 215.886 276.482 213.921 276.715 211.017ZM330.829 208.95C331.82 207.652 333.251 206.766 334.965 207.267C340.322 208.832 338.743 216.438 336.862 220.14C335.84 222.15 332.536 222.66 331.042 220.89C328.609 218.003 327.443 212.239 330.537 209.395C330.621 209.248 330.714 209.1 330.829 208.95ZM282.856 190.591L283.702 190.443C286.32 189.99 289.575 189.555 291.426 191.66C292.408 192.776 292.746 194.85 291.426 195.918C289.104 197.798 286.537 197.069 283.754 197.229C281.461 197.36 279.257 197.74 277.048 198.371C272.202 199.756 268.254 202.285 264.115 205.062C263.572 205.426 263.018 204.731 263.277 204.223C265.666 199.543 270.296 195.699 274.934 193.355C277.409 192.104 280.118 191.067 282.856 190.591ZM325.946 188.494L326.593 188.627C333.641 190.1 342.798 193.043 346.135 199.967C346.262 200.946 346.128 201.155 346.019 201.292L345.982 201.338C345.892 201.455 345.821 201.616 345.396 201.75C345.279 201.722 345.16 201.692 345.039 201.66C343.51 201.259 342.299 200.707 341.127 200.134L339.857 199.508C338.383 198.785 336.896 198.089 335.32 197.574C331.957 196.477 328.497 195.704 324.984 195.292C324.223 195.202 323.49 194.945 322.911 194.505C322.362 194.087 321.943 193.508 321.752 192.739C321.504 191.743 321.575 190.989 322.109 190.091C322.511 189.416 323.086 188.949 323.746 188.68C324.418 188.406 325.184 188.342 325.946 188.494Z" fill="black"/>
<path fill-rule="evenodd" clip-rule="evenodd" d="M326.736 248.813C332.015 249.188 337.009 252.464 341.551 254.996C345.922 257.608 349.157 261.478 351.741 265.792L351.909 266.074C352.06 266.298 351.79 266.551 351.568 266.465L351.533 266.449C347.244 264.297 342.718 262.552 338.507 260.204C334.394 257.662 329.345 256.793 325.201 254.48C322.833 252.724 323.544 248.949 326.736 248.813ZM313.003 251.375C313.196 252.58 312.71 254.491 311.128 255.05C308.351 256.03 305.821 256.558 303.031 257.323L299.414 258.336C292.467 260.293 285.415 262.394 279.264 265.477L279.071 265.392C274.603 262.597 299.286 250.934 307.808 249.076C309.374 248.734 312.713 249.558 313.003 251.375Z" fill="black"/>
</svg>
