<svg width="226" height="323" viewBox="0 0 226 323" fill="none" xmlns="http://www.w3.org/2000/svg">
<g filter="url(#filter0_d_307_811)">
<path d="M130.484 299.023C130.484 309.13 121.93 317.324 111.378 317.324C100.827 317.324 92.2731 309.13 92.2731 299.023C92.2731 289.845 99.5948 280.333 109.202 278.082C111.159 277.623 113.216 277.648 115.15 278.196C123.928 280.686 130.484 289.915 130.484 299.023Z" fill="#212740"/>
<path d="M81.2083 276.553L66.9466 263.34C66.3717 262.807 66.3607 261.89 66.909 261.33C103.507 223.963 140.825 245.125 155.947 261.374C156.465 261.93 156.416 262.786 155.863 263.307L141.764 276.587C141.186 277.131 140.258 277.074 139.716 276.494C116.323 251.459 93.0544 265.294 83.289 276.427C82.7505 277.041 81.8075 277.108 81.2083 276.553Z" fill="#212740"/>
<path d="M38.8673 236.04L52.7903 249.829C53.3439 250.377 54.2576 250.353 54.8123 249.806C102.061 203.192 149.529 229.624 168.503 249.74C169.058 250.329 169.983 250.338 170.553 249.764L184.072 236.144C184.637 235.574 184.592 234.631 183.992 234.098C120.262 177.482 61.3449 209.869 38.8037 234.129C38.2935 234.678 38.3348 235.513 38.8673 236.04Z" fill="#212740"/>
<path d="M25.3475 228.378L12.1316 215.94C11.5494 215.393 11.5622 214.45 12.1377 213.895C95.1442 133.846 178.297 179.553 210.606 213.434C211.136 213.99 211.092 214.847 210.537 215.379L196.927 228.416C196.373 228.946 195.475 228.916 194.928 228.378C124.423 159.034 54.5856 198.733 27.3596 228.317C26.8222 228.9 25.9256 228.922 25.3475 228.378Z" fill="#212740"/>
<path d="M59.8232 79.7044C64.6653 124.456 -5.05832 134.338 5.74608 196.031C5.96503 197.281 7.64232 197.649 8.39765 196.628C27.6939 170.534 91.6978 141.221 97.9241 115.757C107.95 74.7557 84.4414 72.5751 90.7316 46.8822C91.075 45.4795 93.0911 45.582 93.5024 46.9664C102.723 77.9971 139.762 86.4558 126.225 135.755C125.908 136.908 127.039 137.957 128.105 137.409C137.731 132.467 149.146 122.659 155.848 116.27C156.814 115.349 158.468 116.15 158.375 117.481C155.361 160.938 185.384 161.209 210.498 194.285C211.352 195.41 213.188 194.76 213.082 193.354C210.18 154.699 193.55 163.435 189.485 129.107C189.339 127.876 187.866 127.44 187.294 128.541C184.129 134.636 184.999 143.138 186.549 149.296C186.897 150.682 185.199 151.828 184.135 150.872C151.592 121.63 191.936 100.289 164.934 67.1597C164.007 66.0228 162.155 66.9797 162.385 68.4267C165.87 90.3436 151.491 105.321 142.831 112.545C141.905 113.317 140.514 112.576 140.5 111.372C139.995 66.8199 79.8841 57.1735 106.146 4.84407C106.834 3.47304 105.14 2.05917 103.95 3.02967C36.3585 58.1456 127.321 96.0481 62.3111 136.038C61.7615 136.376 60.9845 136.327 60.6391 135.783C54.8478 126.661 80.0755 99.0532 62.1565 78.534C61.2679 77.5165 59.678 78.3629 59.8232 79.7044Z" fill="#212740"/>
</g>
<defs>
<filter id="filter0_d_307_811" x="0.406812" y="-3.49111" width="224.88" height="331.015" filterUnits="userSpaceOnUse" color-interpolation-filters="sRGB">
<feFlood flood-opacity="0" result="BackgroundImageFix"/>
<feColorMatrix in="SourceAlpha" type="matrix" values="0 0 0 0 0 0 0 0 0 0 0 0 0 0 0 0 0 0 127 0" result="hardAlpha"/>
<feOffset dx="4" dy="2"/>
<feGaussianBlur stdDeviation="4.1"/>
<feComposite in2="hardAlpha" operator="out"/>
<feColorMatrix type="matrix" values="0 0 0 0 0 0 0 0 0 0 0 0 0 0 0 0 0 0 0.25 0"/>
<feBlend mode="normal" in2="BackgroundImageFix" result="effect1_dropShadow_307_811"/>
<feBlend mode="normal" in="SourceGraphic" in2="effect1_dropShadow_307_811" result="shape"/>
</filter>
</defs>
</svg>
