<svg width="436" height="647" viewBox="0 0 436 647" fill="none" xmlns="http://www.w3.org/2000/svg">
<g filter="url(#filter0_d_269_2360)">
<path d="M253.384 593.164C253.384 613.366 236.287 629.742 215.198 629.742C194.108 629.742 177.012 613.366 177.012 593.164C177.012 574.821 191.646 555.808 210.847 551.309C214.759 550.392 218.87 550.441 222.735 551.538C240.281 556.515 253.384 574.96 253.384 593.164Z" fill="#212740"/>
<path d="M154.896 548.254L126.391 521.845C125.242 520.78 125.22 518.945 126.316 517.826C199.464 443.14 274.052 485.438 304.278 517.915C305.313 519.026 305.214 520.737 304.109 521.778L275.93 548.321C274.775 549.408 272.92 549.295 271.837 548.136C225.081 498.098 178.573 525.751 159.055 548.001C157.979 549.228 156.094 549.364 154.896 548.254Z" fill="#212740"/>
<path d="M70.2688 467.28L98.0967 494.839C99.2033 495.935 101.029 495.887 102.138 494.793C196.574 401.626 291.451 454.456 329.372 494.661C330.483 495.838 332.331 495.858 333.471 494.709L360.492 467.487C361.622 466.349 361.53 464.463 360.331 463.398C232.954 350.238 115.195 414.97 70.1415 463.459C69.1219 464.556 69.2044 466.226 70.2688 467.28Z" fill="#212740"/>
<path d="M43.2465 451.965L16.8316 427.106C15.668 426.011 15.6936 424.128 16.8438 423.018C182.75 263.022 348.949 354.378 413.525 422.096C414.586 423.207 414.496 424.922 413.387 425.984L386.185 452.041C385.077 453.101 383.282 453.041 382.189 451.966C241.27 313.366 101.685 392.713 47.2681 451.842C46.1939 453.01 44.4018 453.052 43.2465 451.965Z" fill="#212740"/>
<path d="M112.153 154.809C121.831 244.255 -17.5261 264.007 4.06882 387.314C4.50643 389.812 7.85887 390.548 9.36855 388.506C47.9362 336.352 175.862 277.764 188.306 226.869C208.345 144.918 161.358 140.56 173.931 89.2071C174.617 86.4035 178.647 86.6084 179.469 89.3754C197.897 151.397 271.928 168.303 244.872 266.838C244.239 269.143 246.499 271.239 248.629 270.145C267.87 260.266 290.683 240.663 304.079 227.894C306.011 226.053 309.316 227.654 309.131 230.313C303.107 317.173 363.114 317.714 413.309 383.823C415.015 386.071 418.686 384.773 418.474 381.962C412.673 304.702 379.435 322.162 371.31 253.552C371.018 251.09 368.074 250.219 366.931 252.42C360.605 264.603 362.344 281.595 365.442 293.903C366.139 296.673 362.744 298.964 360.617 297.052C295.573 238.607 376.21 195.951 322.239 129.736C320.387 127.464 316.685 129.376 317.145 132.268C324.111 176.074 295.372 206.009 278.062 220.447C276.211 221.991 273.431 220.51 273.404 218.104C272.395 129.057 152.249 109.776 204.74 5.18491C206.115 2.44462 202.729 -0.381317 200.351 1.55845C65.2543 111.719 247.061 187.476 117.126 267.404C116.028 268.08 114.475 267.981 113.784 266.894C102.209 248.662 152.632 193.482 116.817 152.47C115.041 150.436 111.863 152.128 112.153 154.809Z" fill="#212740"/>
</g>
<defs>
<filter id="filter0_d_269_2360" x="0.891748" y="0.0172977" width="434.491" height="646.625" filterUnits="userSpaceOnUse" color-interpolation-filters="sRGB">
<feFlood flood-opacity="0" result="BackgroundImageFix"/>
<feColorMatrix in="SourceAlpha" type="matrix" values="0 0 0 0 0 0 0 0 0 0 0 0 0 0 0 0 0 0 127 0" result="hardAlpha"/>
<feOffset dx="8" dy="8"/>
<feGaussianBlur stdDeviation="4.45"/>
<feComposite in2="hardAlpha" operator="out"/>
<feColorMatrix type="matrix" values="0 0 0 0 0 0 0 0 0 0 0 0 0 0 0 0 0 0 0.25 0"/>
<feBlend mode="normal" in2="BackgroundImageFix" result="effect1_dropShadow_269_2360"/>
<feBlend mode="normal" in="SourceGraphic" in2="effect1_dropShadow_269_2360" result="shape"/>
</filter>
</defs>
</svg>
